%TF.GenerationSoftware,KiCad,Pcbnew,9.0.3*%
%TF.CreationDate,2025-09-10T22:30:54-03:00*%
%TF.ProjectId,PUCK_1 - Copy,5055434b-5f31-4202-9d20-436f70792e6b,rev?*%
%TF.SameCoordinates,Original*%
%TF.FileFunction,Legend,Top*%
%TF.FilePolarity,Positive*%
%FSLAX46Y46*%
G04 Gerber Fmt 4.6, Leading zero omitted, Abs format (unit mm)*
G04 Created by KiCad (PCBNEW 9.0.3) date 2025-09-10 22:30:54*
%MOMM*%
%LPD*%
G01*
G04 APERTURE LIST*
%ADD10C,1.016000*%
%ADD11C,0.150000*%
%ADD12C,0.000000*%
%ADD13C,0.120000*%
G04 APERTURE END LIST*
D10*
G36*
X628933378Y-2870604D02*
G01*
X626377425Y-2870604D01*
X625953937Y-2839528D01*
X625632092Y-2755929D01*
X625390042Y-2629893D01*
X625211117Y-2464877D01*
X625082496Y-2256075D01*
X625006166Y-2002899D01*
X624986572Y-1692941D01*
X625020867Y-1423562D01*
X626527348Y-1423562D01*
X626552133Y-1556225D01*
X626613168Y-1672035D01*
X626710115Y-1754701D01*
X626882012Y-1814100D01*
X627165924Y-1838296D01*
X627603910Y-1838296D01*
X627839033Y-706729D01*
X627462154Y-706729D01*
X627168278Y-727729D01*
X626955780Y-782921D01*
X626805175Y-863995D01*
X626679791Y-980581D01*
X626592987Y-1113855D01*
X626541204Y-1267240D01*
X626527348Y-1423562D01*
X625020867Y-1423562D01*
X625035240Y-1310666D01*
X625143190Y-936311D01*
X625296614Y-615723D01*
X625494381Y-341319D01*
X625738437Y-107755D01*
X626018538Y73786D01*
X626350555Y208893D01*
X626744244Y294928D01*
X627211522Y325577D01*
X628053683Y325577D01*
X628445761Y2211523D01*
X629989879Y2211523D01*
X628933378Y-2870604D01*
G37*
G36*
X623839153Y-2870604D02*
G01*
X622454162Y-2870604D01*
X623510664Y2211523D01*
X624895655Y2211523D01*
X623839153Y-2870604D01*
G37*
G36*
X621775779Y2267720D02*
G01*
X622027644Y2205000D01*
X622219738Y2110149D01*
X622364207Y1986016D01*
X622476098Y1825972D01*
X622542675Y1650951D01*
X622565741Y1455745D01*
X622541945Y1233498D01*
X622459005Y966947D01*
X622331326Y739000D01*
X622157622Y543639D01*
X621943224Y392851D01*
X621628906Y256733D01*
X621184871Y141635D01*
X620130230Y-82010D01*
X619606322Y-250132D01*
X619584582Y-427514D01*
X619597794Y-544715D01*
X619634859Y-620497D01*
X619699669Y-673839D01*
X619808811Y-711492D01*
X619982581Y-726581D01*
X620299953Y-695639D01*
X620514554Y-615534D01*
X620651945Y-500393D01*
X620796205Y-289836D01*
X622087829Y-428800D01*
X621923708Y-756415D01*
X621756858Y-984038D01*
X621551296Y-1168931D01*
X621278238Y-1335481D01*
X621046824Y-1426374D01*
X620721139Y-1501432D01*
X620370314Y-1545257D01*
X619989095Y-1560368D01*
X619400364Y-1540074D01*
X619006107Y-1489024D01*
X618774828Y-1421467D01*
X618588725Y-1322171D01*
X618440014Y-1192174D01*
X618325057Y-1012074D01*
X618253590Y-749225D01*
X618235586Y-466565D01*
X618265688Y-202363D01*
X618404377Y464541D01*
X619754902Y464541D01*
X620386756Y645691D01*
X620788619Y771536D01*
X620965878Y867786D01*
X621079686Y991658D01*
X621134620Y1124312D01*
X621136435Y1276779D01*
X621076615Y1392625D01*
X620961994Y1467447D01*
X620763945Y1496848D01*
X620537451Y1469222D01*
X620311070Y1384250D01*
X620110564Y1255171D01*
X619972034Y1109113D01*
X619873966Y929879D01*
X619801120Y686636D01*
X619754902Y464541D01*
X618404377Y464541D01*
X618604413Y1426436D01*
X618646398Y1673956D01*
X618656835Y1834644D01*
X618642130Y1991057D01*
X618594177Y2211523D01*
X619891075Y2211523D01*
X619946909Y1990358D01*
X619944738Y1751513D01*
X620275672Y1990301D01*
X620564494Y2136767D01*
X620834258Y2221056D01*
X621127787Y2273031D01*
X621448531Y2290931D01*
X621775779Y2267720D01*
G37*
G36*
X617468814Y-1480959D02*
G01*
X616009067Y-1480959D01*
X615777046Y977283D01*
X614576927Y-1480959D01*
X613215820Y-1480959D01*
X615466547Y2470530D01*
X615743579Y2916302D01*
X615970489Y3208386D01*
X616155786Y3385275D01*
X616376535Y3525313D01*
X616638909Y3629814D01*
X616950729Y3696494D01*
X617321474Y3720279D01*
X617658208Y3703310D01*
X618227845Y3638699D01*
X618133858Y2664398D01*
X617843000Y2740208D01*
X617489906Y2767380D01*
X617259240Y2736191D01*
X617069601Y2646717D01*
X616906579Y2492785D01*
X616723121Y2214935D01*
X617468814Y-1480959D01*
G37*
G36*
X612206634Y2263371D02*
G01*
X612558957Y2190694D01*
X612813816Y2084655D01*
X613034071Y1923495D01*
X613214909Y1708036D01*
X613358197Y1428917D01*
X613440014Y1124924D01*
X613459405Y776399D01*
X613408137Y372105D01*
X613286443Y-45364D01*
X613107961Y-413352D01*
X612872448Y-738673D01*
X612576212Y-1025913D01*
X612236873Y-1256530D01*
X611860811Y-1422545D01*
X611441294Y-1524883D01*
X610969746Y-1560368D01*
X610455482Y-1528719D01*
X610074556Y-1445014D01*
X609797544Y-1322143D01*
X609560173Y-1139403D01*
X609382166Y-911879D01*
X609258747Y-632284D01*
X609199791Y-328055D01*
X609199392Y-240936D01*
X610559355Y-240936D01*
X610595034Y-426329D01*
X610661729Y-551635D01*
X610766010Y-646017D01*
X610903742Y-705091D01*
X611085756Y-726581D01*
X611294219Y-697932D01*
X611485804Y-612054D01*
X611666739Y-462611D01*
X611805057Y-270333D01*
X611927918Y27796D01*
X610566501Y27796D01*
X610559355Y-240936D01*
X609199392Y-240936D01*
X609198026Y57252D01*
X609268673Y543950D01*
X609301863Y702766D01*
X612071845Y702766D01*
X612077783Y931799D01*
X612050444Y1097197D01*
X611998331Y1214887D01*
X611880807Y1348151D01*
X611727327Y1428460D01*
X611525914Y1457144D01*
X611324871Y1431863D01*
X611117085Y1352921D01*
X610991204Y1268948D01*
X610827680Y1119659D01*
X609491388Y1238772D01*
X609797944Y1592388D01*
X610104375Y1857501D01*
X610412648Y2046502D01*
X610750186Y2174673D01*
X611181977Y2259645D01*
X611729397Y2290931D01*
X612206634Y2263371D01*
G37*
G36*
X608096471Y-1480959D02*
G01*
X606803295Y-1480959D01*
X606928921Y-877643D01*
X606652656Y-1225790D01*
X606432000Y-1413649D01*
X606189371Y-1523047D01*
X605910883Y-1560368D01*
X605711845Y-1540534D01*
X605503520Y-1478844D01*
X605282131Y-1369912D01*
X605918948Y-363971D01*
X606134523Y-446015D01*
X606284040Y-468504D01*
X606454746Y-443583D01*
X606609095Y-369008D01*
X606752734Y-238655D01*
X606907592Y-3586D01*
X607064748Y381536D01*
X607218017Y972320D01*
X607475784Y2211523D01*
X608864187Y2211523D01*
X608096471Y-1480959D01*
G37*
G36*
X599440353Y2211523D02*
G01*
X603588192Y2211523D01*
X603426251Y1808198D01*
X603202009Y1416168D01*
X602910431Y1032807D01*
X602567748Y687088D01*
X602042625Y258614D01*
X601283803Y-268743D01*
X600648995Y-712932D01*
X600361612Y-966047D01*
X600179260Y-1209813D01*
X600097642Y-1417991D01*
X600086097Y-1568475D01*
X600115176Y-1697926D01*
X600183874Y-1813171D01*
X600283725Y-1902501D01*
X600410479Y-1957542D01*
X600572540Y-1977261D01*
X600742765Y-1958134D01*
X600897507Y-1901706D01*
X601040925Y-1806347D01*
X601158797Y-1679110D01*
X601276133Y-1484756D01*
X601391438Y-1203031D01*
X602752545Y-1318110D01*
X602595956Y-1710748D01*
X602430900Y-2018193D01*
X602259345Y-2254259D01*
X602053333Y-2459798D01*
X601814611Y-2631485D01*
X601539398Y-2770413D01*
X601245120Y-2864598D01*
X600873187Y-2927077D01*
X600407520Y-2950012D01*
X599918585Y-2926989D01*
X599561407Y-2866760D01*
X599307282Y-2780339D01*
X599081059Y-2644874D01*
X598906548Y-2472347D01*
X598777480Y-2258912D01*
X598700056Y-2020376D01*
X598676035Y-1760147D01*
X598708928Y-1471033D01*
X598799107Y-1173145D01*
X598947228Y-878638D01*
X599159632Y-584205D01*
X599414456Y-321922D01*
X599791266Y-15508D01*
X600321288Y342017D01*
X600965239Y753017D01*
X601359799Y1060103D01*
X599200887Y1060103D01*
X599440353Y2211523D01*
G37*
G36*
X600583595Y-187603991D02*
G01*
X600905440Y-187687590D01*
X601147490Y-187813626D01*
X601326415Y-187978642D01*
X601455036Y-188187444D01*
X601531366Y-188440620D01*
X601550960Y-188750578D01*
X601502292Y-189132853D01*
X601394342Y-189507208D01*
X601240918Y-189827796D01*
X601043151Y-190102200D01*
X600799095Y-190335764D01*
X600518994Y-190517306D01*
X600186977Y-190652413D01*
X599793288Y-190738448D01*
X599326010Y-190769097D01*
X598483849Y-190769097D01*
X598091771Y-192655043D01*
X596547653Y-192655043D01*
X597154316Y-189736790D01*
X598698499Y-189736790D01*
X599075378Y-189736790D01*
X599369254Y-189715790D01*
X599581752Y-189660598D01*
X599732357Y-189579524D01*
X599857741Y-189462938D01*
X599944545Y-189329664D01*
X599996328Y-189176279D01*
X600010184Y-189019957D01*
X599985399Y-188887294D01*
X599924364Y-188771484D01*
X599827417Y-188688818D01*
X599655520Y-188629419D01*
X599371608Y-188605223D01*
X598933622Y-188605223D01*
X598698499Y-189736790D01*
X597154316Y-189736790D01*
X597604154Y-187572915D01*
X600160107Y-187572915D01*
X600583595Y-187603991D01*
G37*
G36*
X602698379Y-187572915D02*
G01*
X604083370Y-187572915D01*
X603026868Y-192655043D01*
X601641877Y-192655043D01*
X602698379Y-187572915D01*
G37*
G36*
X607137168Y-188903445D02*
G01*
X607531425Y-188954495D01*
X607762704Y-189022052D01*
X607948807Y-189121348D01*
X608097518Y-189251345D01*
X608212475Y-189431445D01*
X608283942Y-189694294D01*
X608301946Y-189976954D01*
X608271844Y-190241156D01*
X607933119Y-191869956D01*
X607891134Y-192117476D01*
X607880697Y-192278164D01*
X607895402Y-192434577D01*
X607943355Y-192655043D01*
X606646457Y-192655043D01*
X606590623Y-192433878D01*
X606592794Y-192195033D01*
X606261860Y-192433821D01*
X605973038Y-192580287D01*
X605703274Y-192664576D01*
X605409745Y-192716551D01*
X605089001Y-192734451D01*
X604761753Y-192711240D01*
X604509888Y-192648520D01*
X604317794Y-192553669D01*
X604173325Y-192429536D01*
X604061434Y-192269492D01*
X603994857Y-192094471D01*
X603971791Y-191899265D01*
X603990953Y-191720299D01*
X605401097Y-191720299D01*
X605460917Y-191836145D01*
X605575538Y-191910967D01*
X605773587Y-191940368D01*
X606000081Y-191912742D01*
X606226462Y-191827770D01*
X606426968Y-191698691D01*
X606565498Y-191552633D01*
X606663566Y-191373399D01*
X606736412Y-191130156D01*
X606782630Y-190908061D01*
X606150776Y-191089211D01*
X605748913Y-191215056D01*
X605571654Y-191311306D01*
X605457846Y-191435178D01*
X605402912Y-191567832D01*
X605401097Y-191720299D01*
X603990953Y-191720299D01*
X603995587Y-191677018D01*
X604078527Y-191410467D01*
X604206206Y-191182520D01*
X604379910Y-190987159D01*
X604594308Y-190836371D01*
X604908626Y-190700253D01*
X605352661Y-190585155D01*
X606407302Y-190361509D01*
X606931210Y-190193387D01*
X606952950Y-190016005D01*
X606939738Y-189898804D01*
X606902673Y-189823022D01*
X606837863Y-189769680D01*
X606728721Y-189732027D01*
X606554951Y-189716938D01*
X606237579Y-189747880D01*
X606022978Y-189827985D01*
X605885587Y-189943126D01*
X605741327Y-190153683D01*
X604449703Y-190014719D01*
X604613824Y-189687104D01*
X604780674Y-189459481D01*
X604986236Y-189274588D01*
X605259294Y-189108038D01*
X605490708Y-189017145D01*
X605816393Y-188942087D01*
X606167218Y-188898262D01*
X606548437Y-188883151D01*
X607137168Y-188903445D01*
G37*
G36*
X609068718Y-188962560D02*
G01*
X610528465Y-188962560D01*
X610760486Y-191420803D01*
X611960605Y-188962560D01*
X613321712Y-188962560D01*
X611070985Y-192914050D01*
X610793953Y-193359822D01*
X610567043Y-193651906D01*
X610381746Y-193828795D01*
X610160997Y-193968833D01*
X609898623Y-194073334D01*
X609586803Y-194140014D01*
X609216058Y-194163799D01*
X608879324Y-194146830D01*
X608309687Y-194082219D01*
X608403674Y-193107918D01*
X608694532Y-193183728D01*
X609047626Y-193210900D01*
X609278292Y-193179711D01*
X609467931Y-193090237D01*
X609630953Y-192936305D01*
X609814411Y-192658455D01*
X609068718Y-188962560D01*
G37*
G36*
X616082050Y-188914800D02*
G01*
X616462976Y-188998505D01*
X616739988Y-189121376D01*
X616977359Y-189304116D01*
X617155366Y-189531640D01*
X617278785Y-189811235D01*
X617337741Y-190115464D01*
X617339506Y-190500772D01*
X617268859Y-190987470D01*
X617235669Y-191146286D01*
X614465687Y-191146286D01*
X614459749Y-191375319D01*
X614487088Y-191540717D01*
X614539201Y-191658407D01*
X614656725Y-191791671D01*
X614810205Y-191871980D01*
X615011618Y-191900664D01*
X615212661Y-191875383D01*
X615420447Y-191796441D01*
X615546328Y-191712468D01*
X615709852Y-191563179D01*
X617046144Y-191682292D01*
X616739588Y-192035908D01*
X616433157Y-192301021D01*
X616124884Y-192490022D01*
X615787346Y-192618193D01*
X615355555Y-192703165D01*
X614808135Y-192734451D01*
X614330898Y-192706891D01*
X613978575Y-192634214D01*
X613723716Y-192528175D01*
X613503461Y-192367015D01*
X613322623Y-192151556D01*
X613179335Y-191872437D01*
X613097518Y-191568444D01*
X613078127Y-191219919D01*
X613129395Y-190815625D01*
X613229762Y-190471316D01*
X614609614Y-190471316D01*
X615971031Y-190471316D01*
X615978177Y-190202583D01*
X615942498Y-190017190D01*
X615875803Y-189891884D01*
X615771522Y-189797502D01*
X615633790Y-189738428D01*
X615451776Y-189716938D01*
X615243313Y-189745587D01*
X615051728Y-189831465D01*
X614870793Y-189980908D01*
X614732475Y-190173186D01*
X614609614Y-190471316D01*
X613229762Y-190471316D01*
X613251089Y-190398155D01*
X613429571Y-190030167D01*
X613665084Y-189704846D01*
X613961320Y-189417606D01*
X614300659Y-189186989D01*
X614676721Y-189020974D01*
X615096238Y-188918636D01*
X615567786Y-188883151D01*
X616082050Y-188914800D01*
G37*
G36*
X618441061Y-188962560D02*
G01*
X619734237Y-188962560D01*
X619608611Y-189565876D01*
X619884876Y-189217729D01*
X620105532Y-189029870D01*
X620348161Y-188920472D01*
X620626649Y-188883151D01*
X620825687Y-188902985D01*
X621034012Y-188964675D01*
X621255401Y-189073607D01*
X620618584Y-190079548D01*
X620403009Y-189997504D01*
X620253492Y-189975015D01*
X620082786Y-189999936D01*
X619928437Y-190074511D01*
X619784798Y-190204864D01*
X619629940Y-190439933D01*
X619472784Y-190825056D01*
X619319515Y-191415840D01*
X619061748Y-192655043D01*
X617673345Y-192655043D01*
X618441061Y-188962560D01*
G37*
G36*
X627257236Y-187493507D02*
G01*
X626184295Y-192655043D01*
X624785655Y-192655043D01*
X625487301Y-189280503D01*
X625094124Y-189523208D01*
X624742229Y-189704530D01*
X624369461Y-189856604D01*
X623881766Y-190014719D01*
X624120921Y-188863299D01*
X624617448Y-188686428D01*
X625017070Y-188498544D01*
X625334068Y-188302168D01*
X625623753Y-188067460D01*
X625882998Y-187798677D01*
X626113262Y-187493507D01*
X627257236Y-187493507D01*
G37*
G36*
X693326969Y-193890189D02*
G01*
X694726849Y-193751224D01*
X694789214Y-193970588D01*
X694891559Y-194102357D01*
X695042874Y-194178491D01*
X695276813Y-194207821D01*
X695537463Y-194175621D01*
X695732790Y-194087158D01*
X695845004Y-193983458D01*
X695898431Y-193862892D01*
X695900437Y-193768590D01*
X695866070Y-193692644D01*
X695791106Y-193628079D01*
X695645797Y-193574710D01*
X695227183Y-193483221D01*
X694590514Y-193346674D01*
X694276766Y-193246237D01*
X694119256Y-193156968D01*
X693988526Y-193035064D01*
X693881896Y-192876493D01*
X693814032Y-192698705D01*
X693790367Y-192503069D01*
X693813654Y-192283102D01*
X693885096Y-192050590D01*
X693996925Y-191842483D01*
X694151139Y-191654971D01*
X694337160Y-191495985D01*
X694553171Y-191364709D01*
X694803155Y-191261031D01*
X695066680Y-191192707D01*
X695396306Y-191147355D01*
X695804444Y-191130752D01*
X696404450Y-191161305D01*
X696735629Y-191232184D01*
X696916563Y-191314507D01*
X697064019Y-191419223D01*
X697182611Y-191546715D01*
X697313804Y-191785448D01*
X697404085Y-192123355D01*
X696069034Y-192242468D01*
X696029544Y-192090169D01*
X695951473Y-191992146D01*
X695794469Y-191913762D01*
X695579557Y-191885131D01*
X695362386Y-191908838D01*
X695220669Y-191969812D01*
X695119211Y-192065954D01*
X695071158Y-192175157D01*
X695080571Y-192293067D01*
X695165145Y-192378640D01*
X695327264Y-192435179D01*
X695729378Y-192503026D01*
X696353770Y-192608123D01*
X696708333Y-192724190D01*
X696897441Y-192835838D01*
X697038501Y-192970126D01*
X697138564Y-193128676D01*
X697199510Y-193307144D01*
X697219513Y-193497994D01*
X697196879Y-193706247D01*
X697134757Y-193910240D01*
X697030851Y-194115699D01*
X696879867Y-194325073D01*
X696697708Y-194506670D01*
X696468981Y-194666477D01*
X696186286Y-194804004D01*
X695885885Y-194897623D01*
X695510268Y-194959450D01*
X695044482Y-194982052D01*
X694524099Y-194958107D01*
X694146111Y-194895605D01*
X693879265Y-194806237D01*
X693697024Y-194697919D01*
X693540699Y-194543216D01*
X693427716Y-194360981D01*
X693355731Y-194145940D01*
X693326969Y-193890189D01*
G37*
G36*
X700692703Y-193453443D02*
G01*
X701973471Y-193612260D01*
X701828351Y-193881352D01*
X701659346Y-194122109D01*
X701466003Y-194336860D01*
X701247538Y-194524963D01*
X701004454Y-194683320D01*
X700734268Y-194812689D01*
X700449094Y-194903341D01*
X700113678Y-194961379D01*
X699719642Y-194982052D01*
X699173935Y-194951607D01*
X698787215Y-194872865D01*
X698557903Y-194782660D01*
X698365044Y-194664791D01*
X698203751Y-194519251D01*
X698069671Y-194347294D01*
X697965958Y-194156993D01*
X697891701Y-193945712D01*
X697857001Y-193724600D01*
X697861702Y-193438730D01*
X697917447Y-193071911D01*
X698017393Y-192700872D01*
X698147063Y-192388054D01*
X698303942Y-192125527D01*
X698521560Y-191864378D01*
X698787526Y-191628295D01*
X699079072Y-191432179D01*
X699351448Y-191300736D01*
X699649098Y-191210074D01*
X700002772Y-191151659D01*
X700421908Y-191130752D01*
X700876961Y-191156004D01*
X701229062Y-191223987D01*
X701498024Y-191325398D01*
X701700505Y-191454589D01*
X701872830Y-191629285D01*
X702005901Y-191840606D01*
X702100583Y-192094955D01*
X702154001Y-192401284D01*
X700816468Y-192579953D01*
X700794069Y-192421495D01*
X700744852Y-192300555D01*
X700671300Y-192208657D01*
X700573516Y-192142756D01*
X700441483Y-192099664D01*
X700264643Y-192083651D01*
X700045819Y-192111396D01*
X699845265Y-192194046D01*
X699656984Y-192336145D01*
X699506665Y-192519955D01*
X699381828Y-192769134D01*
X699286309Y-193099828D01*
X699251298Y-193403073D01*
X699278026Y-193626839D01*
X699352689Y-193792479D01*
X699476309Y-193922466D01*
X699634834Y-194001120D01*
X699839685Y-194029153D01*
X700098570Y-193993385D01*
X700325750Y-193888017D01*
X700518925Y-193715567D01*
X700692703Y-193453443D01*
G37*
G36*
X705560150Y-191161549D02*
G01*
X705917906Y-191246558D01*
X706206314Y-191377942D01*
X706437708Y-191552617D01*
X706620404Y-191772532D01*
X706754307Y-192036275D01*
X706830997Y-192330796D01*
X706848566Y-192664109D01*
X706800003Y-193045856D01*
X706679842Y-193455386D01*
X706500834Y-193820324D01*
X706261979Y-194146909D01*
X705958772Y-194439222D01*
X705613414Y-194673294D01*
X705230153Y-194841930D01*
X704802068Y-194945960D01*
X704320356Y-194982052D01*
X703884913Y-194949601D01*
X703530658Y-194859607D01*
X703242528Y-194719421D01*
X703008880Y-194531038D01*
X702823795Y-194297952D01*
X702696443Y-194041392D01*
X702623809Y-193755927D01*
X702607705Y-193434091D01*
X702613561Y-193388288D01*
X703999527Y-193388288D01*
X704019212Y-193624866D01*
X704083993Y-193790928D01*
X704197801Y-193923278D01*
X704341524Y-194001602D01*
X704525081Y-194029153D01*
X704715029Y-194003826D01*
X704893084Y-193927480D01*
X705064498Y-193794340D01*
X705200098Y-193622873D01*
X705317844Y-193378413D01*
X705413150Y-193040582D01*
X705454011Y-192716741D01*
X705434025Y-192484971D01*
X705369414Y-192320325D01*
X705256952Y-192188328D01*
X705116822Y-192110767D01*
X704939803Y-192083651D01*
X704747724Y-192109432D01*
X704566481Y-192187382D01*
X704390769Y-192323737D01*
X704250692Y-192498374D01*
X704133197Y-192736656D01*
X704042117Y-193054541D01*
X703999527Y-193388288D01*
X702613561Y-193388288D01*
X702654645Y-193066948D01*
X702774309Y-192661309D01*
X702953637Y-192298139D01*
X703193980Y-191971429D01*
X703500218Y-191677304D01*
X703849016Y-191440217D01*
X704230416Y-191270551D01*
X704650614Y-191166602D01*
X705117541Y-191130752D01*
X705560150Y-191161549D01*
G37*
G36*
X707963830Y-191210161D02*
G01*
X709257005Y-191210161D01*
X709131379Y-191813477D01*
X709407644Y-191465330D01*
X709628301Y-191277471D01*
X709870929Y-191168073D01*
X710149417Y-191130752D01*
X710348455Y-191150586D01*
X710556780Y-191212276D01*
X710778169Y-191321208D01*
X710141352Y-192327149D01*
X709925777Y-192245105D01*
X709776260Y-192222616D01*
X709605555Y-192247537D01*
X709451206Y-192322112D01*
X709307566Y-192452465D01*
X709152708Y-192687534D01*
X708995552Y-193072657D01*
X708842283Y-193663441D01*
X708584517Y-194902644D01*
X707196113Y-194902644D01*
X707963830Y-191210161D01*
G37*
G36*
X713615124Y-191162401D02*
G01*
X713996050Y-191246106D01*
X714273062Y-191368977D01*
X714510433Y-191551717D01*
X714688439Y-191779241D01*
X714811859Y-192058836D01*
X714870815Y-192363065D01*
X714872580Y-192748373D01*
X714801933Y-193235071D01*
X714768743Y-193393887D01*
X711998760Y-193393887D01*
X711992823Y-193622920D01*
X712020162Y-193788318D01*
X712072275Y-193906008D01*
X712189799Y-194039272D01*
X712343278Y-194119581D01*
X712544692Y-194148265D01*
X712745734Y-194122984D01*
X712953520Y-194044042D01*
X713079401Y-193960069D01*
X713242926Y-193810780D01*
X714579218Y-193929893D01*
X714272662Y-194283509D01*
X713966231Y-194548622D01*
X713657958Y-194737623D01*
X713320420Y-194865794D01*
X712888629Y-194950766D01*
X712341208Y-194982052D01*
X711863972Y-194954492D01*
X711511649Y-194881815D01*
X711256790Y-194775776D01*
X711036535Y-194614616D01*
X710855697Y-194399157D01*
X710712409Y-194120038D01*
X710630592Y-193816045D01*
X710611201Y-193467520D01*
X710662469Y-193063226D01*
X710762836Y-192718917D01*
X712142688Y-192718917D01*
X713504105Y-192718917D01*
X713511250Y-192450184D01*
X713475572Y-192264791D01*
X713408877Y-192139485D01*
X713304596Y-192045103D01*
X713166864Y-191986029D01*
X712984849Y-191964539D01*
X712776386Y-191993188D01*
X712584802Y-192079066D01*
X712403867Y-192228509D01*
X712265549Y-192420787D01*
X712142688Y-192718917D01*
X710762836Y-192718917D01*
X710784163Y-192645756D01*
X710962645Y-192277768D01*
X711198158Y-191952447D01*
X711494394Y-191665207D01*
X711833733Y-191434590D01*
X712209795Y-191268575D01*
X712629312Y-191166237D01*
X713100860Y-191130752D01*
X713615124Y-191162401D01*
G37*
G36*
X714009847Y4634870D02*
G01*
X712609967Y4495905D01*
X712547602Y4715269D01*
X712445257Y4847038D01*
X712293942Y4923172D01*
X712060003Y4952502D01*
X711799353Y4920302D01*
X711604026Y4831839D01*
X711491812Y4728139D01*
X711438385Y4607573D01*
X711436379Y4513271D01*
X711470746Y4437325D01*
X711545710Y4372760D01*
X711691019Y4319391D01*
X712109633Y4227902D01*
X712746302Y4091355D01*
X713060050Y3990918D01*
X713217560Y3901649D01*
X713348290Y3779745D01*
X713454920Y3621174D01*
X713522784Y3443386D01*
X713546449Y3247750D01*
X713523162Y3027783D01*
X713451720Y2795271D01*
X713339891Y2587164D01*
X713185677Y2399652D01*
X712999656Y2240666D01*
X712783645Y2109390D01*
X712533661Y2005712D01*
X712270136Y1937388D01*
X711940510Y1892036D01*
X711532372Y1875433D01*
X710932366Y1905986D01*
X710601187Y1976865D01*
X710420253Y2059188D01*
X710272797Y2163904D01*
X710154205Y2291396D01*
X710023012Y2530129D01*
X709932731Y2868036D01*
X711267782Y2987149D01*
X711307272Y2834850D01*
X711385343Y2736827D01*
X711542347Y2658443D01*
X711757259Y2629812D01*
X711974430Y2653519D01*
X712116147Y2714493D01*
X712217605Y2810635D01*
X712265658Y2919838D01*
X712256245Y3037748D01*
X712171671Y3123321D01*
X712009552Y3179860D01*
X711607438Y3247707D01*
X710983046Y3352804D01*
X710628483Y3468871D01*
X710439375Y3580519D01*
X710298315Y3714807D01*
X710198252Y3873357D01*
X710137306Y4051825D01*
X710117303Y4242675D01*
X710139937Y4450928D01*
X710202059Y4654921D01*
X710305965Y4860380D01*
X710456949Y5069754D01*
X710639108Y5251351D01*
X710867835Y5411158D01*
X711150530Y5548685D01*
X711450931Y5642304D01*
X711826548Y5704131D01*
X712292334Y5726733D01*
X712812717Y5702788D01*
X713190705Y5640286D01*
X713457551Y5550918D01*
X713639792Y5442600D01*
X713796117Y5287897D01*
X713909100Y5105662D01*
X713981085Y4890621D01*
X714009847Y4634870D01*
G37*
G36*
X706644113Y4198124D02*
G01*
X705363345Y4356941D01*
X705508465Y4626033D01*
X705677470Y4866790D01*
X705870813Y5081541D01*
X706089278Y5269644D01*
X706332362Y5428001D01*
X706602548Y5557370D01*
X706887722Y5648022D01*
X707223138Y5706060D01*
X707617174Y5726733D01*
X708162881Y5696288D01*
X708549601Y5617546D01*
X708778913Y5527341D01*
X708971772Y5409472D01*
X709133065Y5263932D01*
X709267145Y5091975D01*
X709370858Y4901674D01*
X709445115Y4690393D01*
X709479815Y4469281D01*
X709475114Y4183411D01*
X709419369Y3816592D01*
X709319423Y3445553D01*
X709189753Y3132735D01*
X709032874Y2870208D01*
X708815256Y2609059D01*
X708549290Y2372976D01*
X708257744Y2176860D01*
X707985368Y2045417D01*
X707687718Y1954755D01*
X707334044Y1896340D01*
X706914908Y1875433D01*
X706459855Y1900685D01*
X706107754Y1968668D01*
X705838792Y2070079D01*
X705636311Y2199270D01*
X705463986Y2373966D01*
X705330915Y2585287D01*
X705236233Y2839636D01*
X705182815Y3145965D01*
X706520348Y3324634D01*
X706542747Y3166176D01*
X706591964Y3045236D01*
X706665516Y2953338D01*
X706763300Y2887437D01*
X706895333Y2844345D01*
X707072173Y2828332D01*
X707290997Y2856077D01*
X707491551Y2938727D01*
X707679832Y3080826D01*
X707830151Y3264636D01*
X707954988Y3513815D01*
X708050507Y3844509D01*
X708085518Y4147754D01*
X708058790Y4371520D01*
X707984127Y4537160D01*
X707860507Y4667147D01*
X707701982Y4745801D01*
X707497131Y4773834D01*
X707238246Y4738066D01*
X707011066Y4632698D01*
X706817891Y4460248D01*
X706644113Y4198124D01*
G37*
G36*
X703451903Y5694282D02*
G01*
X703806158Y5604288D01*
X704094288Y5464102D01*
X704327936Y5275719D01*
X704513021Y5042633D01*
X704640373Y4786073D01*
X704713007Y4500608D01*
X704729111Y4178772D01*
X704682171Y3811629D01*
X704562507Y3405990D01*
X704383179Y3042820D01*
X704142836Y2716110D01*
X703836598Y2421985D01*
X703487800Y2184898D01*
X703106400Y2015232D01*
X702686202Y1911283D01*
X702219275Y1875433D01*
X701776666Y1906230D01*
X701418910Y1991239D01*
X701130502Y2122623D01*
X700899108Y2297298D01*
X700716412Y2517213D01*
X700582509Y2780956D01*
X700505819Y3075477D01*
X700488250Y3408790D01*
X700494945Y3461422D01*
X701882805Y3461422D01*
X701902791Y3229652D01*
X701967402Y3065006D01*
X702079864Y2933009D01*
X702219994Y2855448D01*
X702397013Y2828332D01*
X702589092Y2854113D01*
X702770335Y2932063D01*
X702946047Y3068418D01*
X703086124Y3243055D01*
X703203619Y3481337D01*
X703294699Y3799222D01*
X703337289Y4132969D01*
X703317604Y4369547D01*
X703252823Y4535609D01*
X703139015Y4667959D01*
X702995292Y4746283D01*
X702811735Y4773834D01*
X702621787Y4748507D01*
X702443732Y4672161D01*
X702272318Y4539021D01*
X702136718Y4367554D01*
X702018972Y4123094D01*
X701923666Y3785263D01*
X701882805Y3461422D01*
X700494945Y3461422D01*
X700536813Y3790537D01*
X700656974Y4200067D01*
X700835982Y4565005D01*
X701074837Y4891590D01*
X701378044Y5183903D01*
X701723402Y5417975D01*
X702106663Y5586611D01*
X702534748Y5690641D01*
X703016460Y5726733D01*
X703451903Y5694282D01*
G37*
G36*
X699372986Y1954842D02*
G01*
X698079811Y1954842D01*
X698205437Y2558158D01*
X697929172Y2210011D01*
X697708515Y2022152D01*
X697465887Y1912754D01*
X697187399Y1875433D01*
X696988361Y1895267D01*
X696780036Y1956957D01*
X696558647Y2065889D01*
X697195464Y3071830D01*
X697411039Y2989786D01*
X697560556Y2967297D01*
X697731261Y2992218D01*
X697885610Y3066793D01*
X698029250Y3197146D01*
X698184108Y3432215D01*
X698341264Y3817338D01*
X698494533Y4408122D01*
X698752299Y5647325D01*
X700140703Y5647325D01*
X699372986Y1954842D01*
G37*
G36*
X695472844Y5699173D02*
G01*
X695825167Y5626496D01*
X696080026Y5520457D01*
X696300281Y5359297D01*
X696481119Y5143838D01*
X696624407Y4864719D01*
X696706224Y4560726D01*
X696725615Y4212201D01*
X696674347Y3807907D01*
X696552653Y3390437D01*
X696374171Y3022449D01*
X696138658Y2697128D01*
X695842422Y2409888D01*
X695503083Y2179271D01*
X695127021Y2013256D01*
X694707504Y1910918D01*
X694235956Y1875433D01*
X693721692Y1907082D01*
X693340766Y1990787D01*
X693063754Y2113658D01*
X692826383Y2296398D01*
X692648377Y2523922D01*
X692524957Y2803517D01*
X692466001Y3107746D01*
X692465602Y3194865D01*
X693825566Y3194865D01*
X693861244Y3009472D01*
X693927939Y2884166D01*
X694032220Y2789784D01*
X694169952Y2730710D01*
X694351967Y2709220D01*
X694560430Y2737869D01*
X694752014Y2823747D01*
X694932949Y2973190D01*
X695071267Y3165468D01*
X695194128Y3463598D01*
X693832711Y3463598D01*
X693825566Y3194865D01*
X692465602Y3194865D01*
X692464236Y3493054D01*
X692534883Y3979752D01*
X692568073Y4138568D01*
X695338056Y4138568D01*
X695343993Y4367601D01*
X695316654Y4532999D01*
X695264541Y4650689D01*
X695147017Y4783953D01*
X694993538Y4864262D01*
X694792124Y4892946D01*
X694591082Y4867665D01*
X694383296Y4788723D01*
X694257415Y4704750D01*
X694093890Y4555461D01*
X692757598Y4674574D01*
X693064154Y5028190D01*
X693370585Y5293303D01*
X693678858Y5482304D01*
X694016396Y5610475D01*
X694448187Y5695447D01*
X694995608Y5726733D01*
X695472844Y5699173D01*
G37*
D11*
X666528333Y-173179819D02*
X666195000Y-172703628D01*
X665956905Y-173179819D02*
X665956905Y-172179819D01*
X665956905Y-172179819D02*
X666337857Y-172179819D01*
X666337857Y-172179819D02*
X666433095Y-172227438D01*
X666433095Y-172227438D02*
X666480714Y-172275057D01*
X666480714Y-172275057D02*
X666528333Y-172370295D01*
X666528333Y-172370295D02*
X666528333Y-172513152D01*
X666528333Y-172513152D02*
X666480714Y-172608390D01*
X666480714Y-172608390D02*
X666433095Y-172656009D01*
X666433095Y-172656009D02*
X666337857Y-172703628D01*
X666337857Y-172703628D02*
X665956905Y-172703628D01*
X667480714Y-173179819D02*
X666909286Y-173179819D01*
X667195000Y-173179819D02*
X667195000Y-172179819D01*
X667195000Y-172179819D02*
X667099762Y-172322676D01*
X667099762Y-172322676D02*
X667004524Y-172417914D01*
X667004524Y-172417914D02*
X666909286Y-172465533D01*
X647991905Y-143933019D02*
X647991905Y-142933019D01*
X647991905Y-142933019D02*
X648230000Y-142933019D01*
X648230000Y-142933019D02*
X648372857Y-142980638D01*
X648372857Y-142980638D02*
X648468095Y-143075876D01*
X648468095Y-143075876D02*
X648515714Y-143171114D01*
X648515714Y-143171114D02*
X648563333Y-143361590D01*
X648563333Y-143361590D02*
X648563333Y-143504447D01*
X648563333Y-143504447D02*
X648515714Y-143694923D01*
X648515714Y-143694923D02*
X648468095Y-143790161D01*
X648468095Y-143790161D02*
X648372857Y-143885400D01*
X648372857Y-143885400D02*
X648230000Y-143933019D01*
X648230000Y-143933019D02*
X647991905Y-143933019D01*
X648896667Y-142933019D02*
X649515714Y-142933019D01*
X649515714Y-142933019D02*
X649182381Y-143313971D01*
X649182381Y-143313971D02*
X649325238Y-143313971D01*
X649325238Y-143313971D02*
X649420476Y-143361590D01*
X649420476Y-143361590D02*
X649468095Y-143409209D01*
X649468095Y-143409209D02*
X649515714Y-143504447D01*
X649515714Y-143504447D02*
X649515714Y-143742542D01*
X649515714Y-143742542D02*
X649468095Y-143837780D01*
X649468095Y-143837780D02*
X649420476Y-143885400D01*
X649420476Y-143885400D02*
X649325238Y-143933019D01*
X649325238Y-143933019D02*
X649039524Y-143933019D01*
X649039524Y-143933019D02*
X648944286Y-143885400D01*
X648944286Y-143885400D02*
X648896667Y-143837780D01*
X647991905Y-90516819D02*
X647991905Y-89516819D01*
X647991905Y-89516819D02*
X648230000Y-89516819D01*
X648230000Y-89516819D02*
X648372857Y-89564438D01*
X648372857Y-89564438D02*
X648468095Y-89659676D01*
X648468095Y-89659676D02*
X648515714Y-89754914D01*
X648515714Y-89754914D02*
X648563333Y-89945390D01*
X648563333Y-89945390D02*
X648563333Y-90088247D01*
X648563333Y-90088247D02*
X648515714Y-90278723D01*
X648515714Y-90278723D02*
X648468095Y-90373961D01*
X648468095Y-90373961D02*
X648372857Y-90469200D01*
X648372857Y-90469200D02*
X648230000Y-90516819D01*
X648230000Y-90516819D02*
X647991905Y-90516819D01*
X649420476Y-89516819D02*
X649230000Y-89516819D01*
X649230000Y-89516819D02*
X649134762Y-89564438D01*
X649134762Y-89564438D02*
X649087143Y-89612057D01*
X649087143Y-89612057D02*
X648991905Y-89754914D01*
X648991905Y-89754914D02*
X648944286Y-89945390D01*
X648944286Y-89945390D02*
X648944286Y-90326342D01*
X648944286Y-90326342D02*
X648991905Y-90421580D01*
X648991905Y-90421580D02*
X649039524Y-90469200D01*
X649039524Y-90469200D02*
X649134762Y-90516819D01*
X649134762Y-90516819D02*
X649325238Y-90516819D01*
X649325238Y-90516819D02*
X649420476Y-90469200D01*
X649420476Y-90469200D02*
X649468095Y-90421580D01*
X649468095Y-90421580D02*
X649515714Y-90326342D01*
X649515714Y-90326342D02*
X649515714Y-90088247D01*
X649515714Y-90088247D02*
X649468095Y-89993009D01*
X649468095Y-89993009D02*
X649420476Y-89945390D01*
X649420476Y-89945390D02*
X649325238Y-89897771D01*
X649325238Y-89897771D02*
X649134762Y-89897771D01*
X649134762Y-89897771D02*
X649039524Y-89945390D01*
X649039524Y-89945390D02*
X648991905Y-89993009D01*
X648991905Y-89993009D02*
X648944286Y-90088247D01*
X695494819Y-187124404D02*
X696304342Y-187124404D01*
X696304342Y-187124404D02*
X696399580Y-187076785D01*
X696399580Y-187076785D02*
X696447200Y-187029166D01*
X696447200Y-187029166D02*
X696494819Y-186933928D01*
X696494819Y-186933928D02*
X696494819Y-186743452D01*
X696494819Y-186743452D02*
X696447200Y-186648214D01*
X696447200Y-186648214D02*
X696399580Y-186600595D01*
X696399580Y-186600595D02*
X696304342Y-186552976D01*
X696304342Y-186552976D02*
X695494819Y-186552976D01*
X696494819Y-185552976D02*
X696494819Y-186124404D01*
X696494819Y-185838690D02*
X695494819Y-185838690D01*
X695494819Y-185838690D02*
X695637676Y-185933928D01*
X695637676Y-185933928D02*
X695732914Y-186029166D01*
X695732914Y-186029166D02*
X695780533Y-186124404D01*
X691084819Y-42072072D02*
X690608628Y-42405405D01*
X691084819Y-42643500D02*
X690084819Y-42643500D01*
X690084819Y-42643500D02*
X690084819Y-42262548D01*
X690084819Y-42262548D02*
X690132438Y-42167310D01*
X690132438Y-42167310D02*
X690180057Y-42119691D01*
X690180057Y-42119691D02*
X690275295Y-42072072D01*
X690275295Y-42072072D02*
X690418152Y-42072072D01*
X690418152Y-42072072D02*
X690513390Y-42119691D01*
X690513390Y-42119691D02*
X690561009Y-42167310D01*
X690561009Y-42167310D02*
X690608628Y-42262548D01*
X690608628Y-42262548D02*
X690608628Y-42643500D01*
X690180057Y-41691119D02*
X690132438Y-41643500D01*
X690132438Y-41643500D02*
X690084819Y-41548262D01*
X690084819Y-41548262D02*
X690084819Y-41310167D01*
X690084819Y-41310167D02*
X690132438Y-41214929D01*
X690132438Y-41214929D02*
X690180057Y-41167310D01*
X690180057Y-41167310D02*
X690275295Y-41119691D01*
X690275295Y-41119691D02*
X690370533Y-41119691D01*
X690370533Y-41119691D02*
X690513390Y-41167310D01*
X690513390Y-41167310D02*
X691084819Y-41738738D01*
X691084819Y-41738738D02*
X691084819Y-41119691D01*
X690418152Y-40262548D02*
X691084819Y-40262548D01*
X690037200Y-40500643D02*
X690751485Y-40738738D01*
X690751485Y-40738738D02*
X690751485Y-40119691D01*
X647991905Y-179509819D02*
X647991905Y-178509819D01*
X647991905Y-178509819D02*
X648230000Y-178509819D01*
X648230000Y-178509819D02*
X648372857Y-178557438D01*
X648372857Y-178557438D02*
X648468095Y-178652676D01*
X648468095Y-178652676D02*
X648515714Y-178747914D01*
X648515714Y-178747914D02*
X648563333Y-178938390D01*
X648563333Y-178938390D02*
X648563333Y-179081247D01*
X648563333Y-179081247D02*
X648515714Y-179271723D01*
X648515714Y-179271723D02*
X648468095Y-179366961D01*
X648468095Y-179366961D02*
X648372857Y-179462200D01*
X648372857Y-179462200D02*
X648230000Y-179509819D01*
X648230000Y-179509819D02*
X647991905Y-179509819D01*
X649515714Y-179509819D02*
X648944286Y-179509819D01*
X649230000Y-179509819D02*
X649230000Y-178509819D01*
X649230000Y-178509819D02*
X649134762Y-178652676D01*
X649134762Y-178652676D02*
X649039524Y-178747914D01*
X649039524Y-178747914D02*
X648944286Y-178795533D01*
X694024819Y-149232857D02*
X693548628Y-149566190D01*
X694024819Y-149804285D02*
X693024819Y-149804285D01*
X693024819Y-149804285D02*
X693024819Y-149423333D01*
X693024819Y-149423333D02*
X693072438Y-149328095D01*
X693072438Y-149328095D02*
X693120057Y-149280476D01*
X693120057Y-149280476D02*
X693215295Y-149232857D01*
X693215295Y-149232857D02*
X693358152Y-149232857D01*
X693358152Y-149232857D02*
X693453390Y-149280476D01*
X693453390Y-149280476D02*
X693501009Y-149328095D01*
X693501009Y-149328095D02*
X693548628Y-149423333D01*
X693548628Y-149423333D02*
X693548628Y-149804285D01*
X694024819Y-148280476D02*
X694024819Y-148851904D01*
X694024819Y-148566190D02*
X693024819Y-148566190D01*
X693024819Y-148566190D02*
X693167676Y-148661428D01*
X693167676Y-148661428D02*
X693262914Y-148756666D01*
X693262914Y-148756666D02*
X693310533Y-148851904D01*
X693120057Y-147899523D02*
X693072438Y-147851904D01*
X693072438Y-147851904D02*
X693024819Y-147756666D01*
X693024819Y-147756666D02*
X693024819Y-147518571D01*
X693024819Y-147518571D02*
X693072438Y-147423333D01*
X693072438Y-147423333D02*
X693120057Y-147375714D01*
X693120057Y-147375714D02*
X693215295Y-147328095D01*
X693215295Y-147328095D02*
X693310533Y-147328095D01*
X693310533Y-147328095D02*
X693453390Y-147375714D01*
X693453390Y-147375714D02*
X694024819Y-147947142D01*
X694024819Y-147947142D02*
X694024819Y-147328095D01*
X712434819Y-65261904D02*
X713244342Y-65261904D01*
X713244342Y-65261904D02*
X713339580Y-65214285D01*
X713339580Y-65214285D02*
X713387200Y-65166666D01*
X713387200Y-65166666D02*
X713434819Y-65071428D01*
X713434819Y-65071428D02*
X713434819Y-64880952D01*
X713434819Y-64880952D02*
X713387200Y-64785714D01*
X713387200Y-64785714D02*
X713339580Y-64738095D01*
X713339580Y-64738095D02*
X713244342Y-64690476D01*
X713244342Y-64690476D02*
X712434819Y-64690476D01*
X712768152Y-63785714D02*
X713434819Y-63785714D01*
X712387200Y-64023809D02*
X713101485Y-64261904D01*
X713101485Y-64261904D02*
X713101485Y-63642857D01*
X647991905Y-72711419D02*
X647991905Y-71711419D01*
X647991905Y-71711419D02*
X648230000Y-71711419D01*
X648230000Y-71711419D02*
X648372857Y-71759038D01*
X648372857Y-71759038D02*
X648468095Y-71854276D01*
X648468095Y-71854276D02*
X648515714Y-71949514D01*
X648515714Y-71949514D02*
X648563333Y-72139990D01*
X648563333Y-72139990D02*
X648563333Y-72282847D01*
X648563333Y-72282847D02*
X648515714Y-72473323D01*
X648515714Y-72473323D02*
X648468095Y-72568561D01*
X648468095Y-72568561D02*
X648372857Y-72663800D01*
X648372857Y-72663800D02*
X648230000Y-72711419D01*
X648230000Y-72711419D02*
X647991905Y-72711419D01*
X648896667Y-71711419D02*
X649563333Y-71711419D01*
X649563333Y-71711419D02*
X649134762Y-72711419D01*
X710614819Y-4486904D02*
X711424342Y-4486904D01*
X711424342Y-4486904D02*
X711519580Y-4439285D01*
X711519580Y-4439285D02*
X711567200Y-4391666D01*
X711567200Y-4391666D02*
X711614819Y-4296428D01*
X711614819Y-4296428D02*
X711614819Y-4105952D01*
X711614819Y-4105952D02*
X711567200Y-4010714D01*
X711567200Y-4010714D02*
X711519580Y-3963095D01*
X711519580Y-3963095D02*
X711424342Y-3915476D01*
X711424342Y-3915476D02*
X710614819Y-3915476D01*
X710710057Y-3486904D02*
X710662438Y-3439285D01*
X710662438Y-3439285D02*
X710614819Y-3344047D01*
X710614819Y-3344047D02*
X710614819Y-3105952D01*
X710614819Y-3105952D02*
X710662438Y-3010714D01*
X710662438Y-3010714D02*
X710710057Y-2963095D01*
X710710057Y-2963095D02*
X710805295Y-2915476D01*
X710805295Y-2915476D02*
X710900533Y-2915476D01*
X710900533Y-2915476D02*
X711043390Y-2963095D01*
X711043390Y-2963095D02*
X711614819Y-3534523D01*
X711614819Y-3534523D02*
X711614819Y-2915476D01*
X685484819Y-42072072D02*
X685008628Y-42405405D01*
X685484819Y-42643500D02*
X684484819Y-42643500D01*
X684484819Y-42643500D02*
X684484819Y-42262548D01*
X684484819Y-42262548D02*
X684532438Y-42167310D01*
X684532438Y-42167310D02*
X684580057Y-42119691D01*
X684580057Y-42119691D02*
X684675295Y-42072072D01*
X684675295Y-42072072D02*
X684818152Y-42072072D01*
X684818152Y-42072072D02*
X684913390Y-42119691D01*
X684913390Y-42119691D02*
X684961009Y-42167310D01*
X684961009Y-42167310D02*
X685008628Y-42262548D01*
X685008628Y-42262548D02*
X685008628Y-42643500D01*
X685484819Y-41119691D02*
X685484819Y-41691119D01*
X685484819Y-41405405D02*
X684484819Y-41405405D01*
X684484819Y-41405405D02*
X684627676Y-41500643D01*
X684627676Y-41500643D02*
X684722914Y-41595881D01*
X684722914Y-41595881D02*
X684770533Y-41691119D01*
X684913390Y-40548262D02*
X684865771Y-40643500D01*
X684865771Y-40643500D02*
X684818152Y-40691119D01*
X684818152Y-40691119D02*
X684722914Y-40738738D01*
X684722914Y-40738738D02*
X684675295Y-40738738D01*
X684675295Y-40738738D02*
X684580057Y-40691119D01*
X684580057Y-40691119D02*
X684532438Y-40643500D01*
X684532438Y-40643500D02*
X684484819Y-40548262D01*
X684484819Y-40548262D02*
X684484819Y-40357786D01*
X684484819Y-40357786D02*
X684532438Y-40262548D01*
X684532438Y-40262548D02*
X684580057Y-40214929D01*
X684580057Y-40214929D02*
X684675295Y-40167310D01*
X684675295Y-40167310D02*
X684722914Y-40167310D01*
X684722914Y-40167310D02*
X684818152Y-40214929D01*
X684818152Y-40214929D02*
X684865771Y-40262548D01*
X684865771Y-40262548D02*
X684913390Y-40357786D01*
X684913390Y-40357786D02*
X684913390Y-40548262D01*
X684913390Y-40548262D02*
X684961009Y-40643500D01*
X684961009Y-40643500D02*
X685008628Y-40691119D01*
X685008628Y-40691119D02*
X685103866Y-40738738D01*
X685103866Y-40738738D02*
X685294342Y-40738738D01*
X685294342Y-40738738D02*
X685389580Y-40691119D01*
X685389580Y-40691119D02*
X685437200Y-40643500D01*
X685437200Y-40643500D02*
X685484819Y-40548262D01*
X685484819Y-40548262D02*
X685484819Y-40357786D01*
X685484819Y-40357786D02*
X685437200Y-40262548D01*
X685437200Y-40262548D02*
X685389580Y-40214929D01*
X685389580Y-40214929D02*
X685294342Y-40167310D01*
X685294342Y-40167310D02*
X685103866Y-40167310D01*
X685103866Y-40167310D02*
X685008628Y-40214929D01*
X685008628Y-40214929D02*
X684961009Y-40262548D01*
X684961009Y-40262548D02*
X684913390Y-40357786D01*
X666528333Y-101992219D02*
X666195000Y-101516028D01*
X665956905Y-101992219D02*
X665956905Y-100992219D01*
X665956905Y-100992219D02*
X666337857Y-100992219D01*
X666337857Y-100992219D02*
X666433095Y-101039838D01*
X666433095Y-101039838D02*
X666480714Y-101087457D01*
X666480714Y-101087457D02*
X666528333Y-101182695D01*
X666528333Y-101182695D02*
X666528333Y-101325552D01*
X666528333Y-101325552D02*
X666480714Y-101420790D01*
X666480714Y-101420790D02*
X666433095Y-101468409D01*
X666433095Y-101468409D02*
X666337857Y-101516028D01*
X666337857Y-101516028D02*
X665956905Y-101516028D01*
X667433095Y-100992219D02*
X666956905Y-100992219D01*
X666956905Y-100992219D02*
X666909286Y-101468409D01*
X666909286Y-101468409D02*
X666956905Y-101420790D01*
X666956905Y-101420790D02*
X667052143Y-101373171D01*
X667052143Y-101373171D02*
X667290238Y-101373171D01*
X667290238Y-101373171D02*
X667385476Y-101420790D01*
X667385476Y-101420790D02*
X667433095Y-101468409D01*
X667433095Y-101468409D02*
X667480714Y-101563647D01*
X667480714Y-101563647D02*
X667480714Y-101801742D01*
X667480714Y-101801742D02*
X667433095Y-101896980D01*
X667433095Y-101896980D02*
X667385476Y-101944600D01*
X667385476Y-101944600D02*
X667290238Y-101992219D01*
X667290238Y-101992219D02*
X667052143Y-101992219D01*
X667052143Y-101992219D02*
X666956905Y-101944600D01*
X666956905Y-101944600D02*
X666909286Y-101896980D01*
X710224819Y-149232857D02*
X709748628Y-149566190D01*
X710224819Y-149804285D02*
X709224819Y-149804285D01*
X709224819Y-149804285D02*
X709224819Y-149423333D01*
X709224819Y-149423333D02*
X709272438Y-149328095D01*
X709272438Y-149328095D02*
X709320057Y-149280476D01*
X709320057Y-149280476D02*
X709415295Y-149232857D01*
X709415295Y-149232857D02*
X709558152Y-149232857D01*
X709558152Y-149232857D02*
X709653390Y-149280476D01*
X709653390Y-149280476D02*
X709701009Y-149328095D01*
X709701009Y-149328095D02*
X709748628Y-149423333D01*
X709748628Y-149423333D02*
X709748628Y-149804285D01*
X710224819Y-148280476D02*
X710224819Y-148851904D01*
X710224819Y-148566190D02*
X709224819Y-148566190D01*
X709224819Y-148566190D02*
X709367676Y-148661428D01*
X709367676Y-148661428D02*
X709462914Y-148756666D01*
X709462914Y-148756666D02*
X709510533Y-148851904D01*
X709224819Y-147375714D02*
X709224819Y-147851904D01*
X709224819Y-147851904D02*
X709701009Y-147899523D01*
X709701009Y-147899523D02*
X709653390Y-147851904D01*
X709653390Y-147851904D02*
X709605771Y-147756666D01*
X709605771Y-147756666D02*
X709605771Y-147518571D01*
X709605771Y-147518571D02*
X709653390Y-147423333D01*
X709653390Y-147423333D02*
X709701009Y-147375714D01*
X709701009Y-147375714D02*
X709796247Y-147328095D01*
X709796247Y-147328095D02*
X710034342Y-147328095D01*
X710034342Y-147328095D02*
X710129580Y-147375714D01*
X710129580Y-147375714D02*
X710177200Y-147423333D01*
X710177200Y-147423333D02*
X710224819Y-147518571D01*
X710224819Y-147518571D02*
X710224819Y-147756666D01*
X710224819Y-147756666D02*
X710177200Y-147851904D01*
X710177200Y-147851904D02*
X710129580Y-147899523D01*
X704824819Y-149232857D02*
X704348628Y-149566190D01*
X704824819Y-149804285D02*
X703824819Y-149804285D01*
X703824819Y-149804285D02*
X703824819Y-149423333D01*
X703824819Y-149423333D02*
X703872438Y-149328095D01*
X703872438Y-149328095D02*
X703920057Y-149280476D01*
X703920057Y-149280476D02*
X704015295Y-149232857D01*
X704015295Y-149232857D02*
X704158152Y-149232857D01*
X704158152Y-149232857D02*
X704253390Y-149280476D01*
X704253390Y-149280476D02*
X704301009Y-149328095D01*
X704301009Y-149328095D02*
X704348628Y-149423333D01*
X704348628Y-149423333D02*
X704348628Y-149804285D01*
X704824819Y-148280476D02*
X704824819Y-148851904D01*
X704824819Y-148566190D02*
X703824819Y-148566190D01*
X703824819Y-148566190D02*
X703967676Y-148661428D01*
X703967676Y-148661428D02*
X704062914Y-148756666D01*
X704062914Y-148756666D02*
X704110533Y-148851904D01*
X704158152Y-147423333D02*
X704824819Y-147423333D01*
X703777200Y-147661428D02*
X704491485Y-147899523D01*
X704491485Y-147899523D02*
X704491485Y-147280476D01*
X647510714Y-19295219D02*
X647510714Y-18295219D01*
X647510714Y-18295219D02*
X647748809Y-18295219D01*
X647748809Y-18295219D02*
X647891666Y-18342838D01*
X647891666Y-18342838D02*
X647986904Y-18438076D01*
X647986904Y-18438076D02*
X648034523Y-18533314D01*
X648034523Y-18533314D02*
X648082142Y-18723790D01*
X648082142Y-18723790D02*
X648082142Y-18866647D01*
X648082142Y-18866647D02*
X648034523Y-19057123D01*
X648034523Y-19057123D02*
X647986904Y-19152361D01*
X647986904Y-19152361D02*
X647891666Y-19247600D01*
X647891666Y-19247600D02*
X647748809Y-19295219D01*
X647748809Y-19295219D02*
X647510714Y-19295219D01*
X649034523Y-19295219D02*
X648463095Y-19295219D01*
X648748809Y-19295219D02*
X648748809Y-18295219D01*
X648748809Y-18295219D02*
X648653571Y-18438076D01*
X648653571Y-18438076D02*
X648558333Y-18533314D01*
X648558333Y-18533314D02*
X648463095Y-18580933D01*
X649653571Y-18295219D02*
X649748809Y-18295219D01*
X649748809Y-18295219D02*
X649844047Y-18342838D01*
X649844047Y-18342838D02*
X649891666Y-18390457D01*
X649891666Y-18390457D02*
X649939285Y-18485695D01*
X649939285Y-18485695D02*
X649986904Y-18676171D01*
X649986904Y-18676171D02*
X649986904Y-18914266D01*
X649986904Y-18914266D02*
X649939285Y-19104742D01*
X649939285Y-19104742D02*
X649891666Y-19199980D01*
X649891666Y-19199980D02*
X649844047Y-19247600D01*
X649844047Y-19247600D02*
X649748809Y-19295219D01*
X649748809Y-19295219D02*
X649653571Y-19295219D01*
X649653571Y-19295219D02*
X649558333Y-19247600D01*
X649558333Y-19247600D02*
X649510714Y-19199980D01*
X649510714Y-19199980D02*
X649463095Y-19104742D01*
X649463095Y-19104742D02*
X649415476Y-18914266D01*
X649415476Y-18914266D02*
X649415476Y-18676171D01*
X649415476Y-18676171D02*
X649463095Y-18485695D01*
X649463095Y-18485695D02*
X649510714Y-18390457D01*
X649510714Y-18390457D02*
X649558333Y-18342838D01*
X649558333Y-18342838D02*
X649653571Y-18295219D01*
X647991905Y-37100619D02*
X647991905Y-36100619D01*
X647991905Y-36100619D02*
X648230000Y-36100619D01*
X648230000Y-36100619D02*
X648372857Y-36148238D01*
X648372857Y-36148238D02*
X648468095Y-36243476D01*
X648468095Y-36243476D02*
X648515714Y-36338714D01*
X648515714Y-36338714D02*
X648563333Y-36529190D01*
X648563333Y-36529190D02*
X648563333Y-36672047D01*
X648563333Y-36672047D02*
X648515714Y-36862523D01*
X648515714Y-36862523D02*
X648468095Y-36957761D01*
X648468095Y-36957761D02*
X648372857Y-37053000D01*
X648372857Y-37053000D02*
X648230000Y-37100619D01*
X648230000Y-37100619D02*
X647991905Y-37100619D01*
X649039524Y-37100619D02*
X649230000Y-37100619D01*
X649230000Y-37100619D02*
X649325238Y-37053000D01*
X649325238Y-37053000D02*
X649372857Y-37005380D01*
X649372857Y-37005380D02*
X649468095Y-36862523D01*
X649468095Y-36862523D02*
X649515714Y-36672047D01*
X649515714Y-36672047D02*
X649515714Y-36291095D01*
X649515714Y-36291095D02*
X649468095Y-36195857D01*
X649468095Y-36195857D02*
X649420476Y-36148238D01*
X649420476Y-36148238D02*
X649325238Y-36100619D01*
X649325238Y-36100619D02*
X649134762Y-36100619D01*
X649134762Y-36100619D02*
X649039524Y-36148238D01*
X649039524Y-36148238D02*
X648991905Y-36195857D01*
X648991905Y-36195857D02*
X648944286Y-36291095D01*
X648944286Y-36291095D02*
X648944286Y-36529190D01*
X648944286Y-36529190D02*
X648991905Y-36624428D01*
X648991905Y-36624428D02*
X649039524Y-36672047D01*
X649039524Y-36672047D02*
X649134762Y-36719666D01*
X649134762Y-36719666D02*
X649325238Y-36719666D01*
X649325238Y-36719666D02*
X649420476Y-36672047D01*
X649420476Y-36672047D02*
X649468095Y-36624428D01*
X649468095Y-36624428D02*
X649515714Y-36529190D01*
X647991905Y-54906019D02*
X647991905Y-53906019D01*
X647991905Y-53906019D02*
X648230000Y-53906019D01*
X648230000Y-53906019D02*
X648372857Y-53953638D01*
X648372857Y-53953638D02*
X648468095Y-54048876D01*
X648468095Y-54048876D02*
X648515714Y-54144114D01*
X648515714Y-54144114D02*
X648563333Y-54334590D01*
X648563333Y-54334590D02*
X648563333Y-54477447D01*
X648563333Y-54477447D02*
X648515714Y-54667923D01*
X648515714Y-54667923D02*
X648468095Y-54763161D01*
X648468095Y-54763161D02*
X648372857Y-54858400D01*
X648372857Y-54858400D02*
X648230000Y-54906019D01*
X648230000Y-54906019D02*
X647991905Y-54906019D01*
X649134762Y-54334590D02*
X649039524Y-54286971D01*
X649039524Y-54286971D02*
X648991905Y-54239352D01*
X648991905Y-54239352D02*
X648944286Y-54144114D01*
X648944286Y-54144114D02*
X648944286Y-54096495D01*
X648944286Y-54096495D02*
X648991905Y-54001257D01*
X648991905Y-54001257D02*
X649039524Y-53953638D01*
X649039524Y-53953638D02*
X649134762Y-53906019D01*
X649134762Y-53906019D02*
X649325238Y-53906019D01*
X649325238Y-53906019D02*
X649420476Y-53953638D01*
X649420476Y-53953638D02*
X649468095Y-54001257D01*
X649468095Y-54001257D02*
X649515714Y-54096495D01*
X649515714Y-54096495D02*
X649515714Y-54144114D01*
X649515714Y-54144114D02*
X649468095Y-54239352D01*
X649468095Y-54239352D02*
X649420476Y-54286971D01*
X649420476Y-54286971D02*
X649325238Y-54334590D01*
X649325238Y-54334590D02*
X649134762Y-54334590D01*
X649134762Y-54334590D02*
X649039524Y-54382209D01*
X649039524Y-54382209D02*
X648991905Y-54429828D01*
X648991905Y-54429828D02*
X648944286Y-54525066D01*
X648944286Y-54525066D02*
X648944286Y-54715542D01*
X648944286Y-54715542D02*
X648991905Y-54810780D01*
X648991905Y-54810780D02*
X649039524Y-54858400D01*
X649039524Y-54858400D02*
X649134762Y-54906019D01*
X649134762Y-54906019D02*
X649325238Y-54906019D01*
X649325238Y-54906019D02*
X649420476Y-54858400D01*
X649420476Y-54858400D02*
X649468095Y-54810780D01*
X649468095Y-54810780D02*
X649515714Y-54715542D01*
X649515714Y-54715542D02*
X649515714Y-54525066D01*
X649515714Y-54525066D02*
X649468095Y-54429828D01*
X649468095Y-54429828D02*
X649420476Y-54382209D01*
X649420476Y-54382209D02*
X649325238Y-54334590D01*
X587766667Y-136152200D02*
X587909524Y-136199819D01*
X587909524Y-136199819D02*
X588147619Y-136199819D01*
X588147619Y-136199819D02*
X588242857Y-136152200D01*
X588242857Y-136152200D02*
X588290476Y-136104580D01*
X588290476Y-136104580D02*
X588338095Y-136009342D01*
X588338095Y-136009342D02*
X588338095Y-135914104D01*
X588338095Y-135914104D02*
X588290476Y-135818866D01*
X588290476Y-135818866D02*
X588242857Y-135771247D01*
X588242857Y-135771247D02*
X588147619Y-135723628D01*
X588147619Y-135723628D02*
X587957143Y-135676009D01*
X587957143Y-135676009D02*
X587861905Y-135628390D01*
X587861905Y-135628390D02*
X587814286Y-135580771D01*
X587814286Y-135580771D02*
X587766667Y-135485533D01*
X587766667Y-135485533D02*
X587766667Y-135390295D01*
X587766667Y-135390295D02*
X587814286Y-135295057D01*
X587814286Y-135295057D02*
X587861905Y-135247438D01*
X587861905Y-135247438D02*
X587957143Y-135199819D01*
X587957143Y-135199819D02*
X588195238Y-135199819D01*
X588195238Y-135199819D02*
X588338095Y-135247438D01*
X588671429Y-135199819D02*
X588909524Y-136199819D01*
X588909524Y-136199819D02*
X589100000Y-135485533D01*
X589100000Y-135485533D02*
X589290476Y-136199819D01*
X589290476Y-136199819D02*
X589528572Y-135199819D01*
X590433333Y-136199819D02*
X589861905Y-136199819D01*
X590147619Y-136199819D02*
X590147619Y-135199819D01*
X590147619Y-135199819D02*
X590052381Y-135342676D01*
X590052381Y-135342676D02*
X589957143Y-135437914D01*
X589957143Y-135437914D02*
X589861905Y-135485533D01*
X706884819Y-42072072D02*
X706408628Y-42405405D01*
X706884819Y-42643500D02*
X705884819Y-42643500D01*
X705884819Y-42643500D02*
X705884819Y-42262548D01*
X705884819Y-42262548D02*
X705932438Y-42167310D01*
X705932438Y-42167310D02*
X705980057Y-42119691D01*
X705980057Y-42119691D02*
X706075295Y-42072072D01*
X706075295Y-42072072D02*
X706218152Y-42072072D01*
X706218152Y-42072072D02*
X706313390Y-42119691D01*
X706313390Y-42119691D02*
X706361009Y-42167310D01*
X706361009Y-42167310D02*
X706408628Y-42262548D01*
X706408628Y-42262548D02*
X706408628Y-42643500D01*
X705980057Y-41691119D02*
X705932438Y-41643500D01*
X705932438Y-41643500D02*
X705884819Y-41548262D01*
X705884819Y-41548262D02*
X705884819Y-41310167D01*
X705884819Y-41310167D02*
X705932438Y-41214929D01*
X705932438Y-41214929D02*
X705980057Y-41167310D01*
X705980057Y-41167310D02*
X706075295Y-41119691D01*
X706075295Y-41119691D02*
X706170533Y-41119691D01*
X706170533Y-41119691D02*
X706313390Y-41167310D01*
X706313390Y-41167310D02*
X706884819Y-41738738D01*
X706884819Y-41738738D02*
X706884819Y-41119691D01*
X706884819Y-40167310D02*
X706884819Y-40738738D01*
X706884819Y-40453024D02*
X705884819Y-40453024D01*
X705884819Y-40453024D02*
X706027676Y-40548262D01*
X706027676Y-40548262D02*
X706122914Y-40643500D01*
X706122914Y-40643500D02*
X706170533Y-40738738D01*
X688624819Y-149232857D02*
X688148628Y-149566190D01*
X688624819Y-149804285D02*
X687624819Y-149804285D01*
X687624819Y-149804285D02*
X687624819Y-149423333D01*
X687624819Y-149423333D02*
X687672438Y-149328095D01*
X687672438Y-149328095D02*
X687720057Y-149280476D01*
X687720057Y-149280476D02*
X687815295Y-149232857D01*
X687815295Y-149232857D02*
X687958152Y-149232857D01*
X687958152Y-149232857D02*
X688053390Y-149280476D01*
X688053390Y-149280476D02*
X688101009Y-149328095D01*
X688101009Y-149328095D02*
X688148628Y-149423333D01*
X688148628Y-149423333D02*
X688148628Y-149804285D01*
X688624819Y-148280476D02*
X688624819Y-148851904D01*
X688624819Y-148566190D02*
X687624819Y-148566190D01*
X687624819Y-148566190D02*
X687767676Y-148661428D01*
X687767676Y-148661428D02*
X687862914Y-148756666D01*
X687862914Y-148756666D02*
X687910533Y-148851904D01*
X688624819Y-147328095D02*
X688624819Y-147899523D01*
X688624819Y-147613809D02*
X687624819Y-147613809D01*
X687624819Y-147613809D02*
X687767676Y-147709047D01*
X687767676Y-147709047D02*
X687862914Y-147804285D01*
X687862914Y-147804285D02*
X687910533Y-147899523D01*
X713083333Y-96697080D02*
X713035714Y-96744700D01*
X713035714Y-96744700D02*
X712892857Y-96792319D01*
X712892857Y-96792319D02*
X712797619Y-96792319D01*
X712797619Y-96792319D02*
X712654762Y-96744700D01*
X712654762Y-96744700D02*
X712559524Y-96649461D01*
X712559524Y-96649461D02*
X712511905Y-96554223D01*
X712511905Y-96554223D02*
X712464286Y-96363747D01*
X712464286Y-96363747D02*
X712464286Y-96220890D01*
X712464286Y-96220890D02*
X712511905Y-96030414D01*
X712511905Y-96030414D02*
X712559524Y-95935176D01*
X712559524Y-95935176D02*
X712654762Y-95839938D01*
X712654762Y-95839938D02*
X712797619Y-95792319D01*
X712797619Y-95792319D02*
X712892857Y-95792319D01*
X712892857Y-95792319D02*
X713035714Y-95839938D01*
X713035714Y-95839938D02*
X713083333Y-95887557D01*
X713464286Y-95887557D02*
X713511905Y-95839938D01*
X713511905Y-95839938D02*
X713607143Y-95792319D01*
X713607143Y-95792319D02*
X713845238Y-95792319D01*
X713845238Y-95792319D02*
X713940476Y-95839938D01*
X713940476Y-95839938D02*
X713988095Y-95887557D01*
X713988095Y-95887557D02*
X714035714Y-95982795D01*
X714035714Y-95982795D02*
X714035714Y-96078033D01*
X714035714Y-96078033D02*
X713988095Y-96220890D01*
X713988095Y-96220890D02*
X713416667Y-96792319D01*
X713416667Y-96792319D02*
X714035714Y-96792319D01*
X666052142Y-12965219D02*
X665718809Y-12489028D01*
X665480714Y-12965219D02*
X665480714Y-11965219D01*
X665480714Y-11965219D02*
X665861666Y-11965219D01*
X665861666Y-11965219D02*
X665956904Y-12012838D01*
X665956904Y-12012838D02*
X666004523Y-12060457D01*
X666004523Y-12060457D02*
X666052142Y-12155695D01*
X666052142Y-12155695D02*
X666052142Y-12298552D01*
X666052142Y-12298552D02*
X666004523Y-12393790D01*
X666004523Y-12393790D02*
X665956904Y-12441409D01*
X665956904Y-12441409D02*
X665861666Y-12489028D01*
X665861666Y-12489028D02*
X665480714Y-12489028D01*
X667004523Y-12965219D02*
X666433095Y-12965219D01*
X666718809Y-12965219D02*
X666718809Y-11965219D01*
X666718809Y-11965219D02*
X666623571Y-12108076D01*
X666623571Y-12108076D02*
X666528333Y-12203314D01*
X666528333Y-12203314D02*
X666433095Y-12250933D01*
X667623571Y-11965219D02*
X667718809Y-11965219D01*
X667718809Y-11965219D02*
X667814047Y-12012838D01*
X667814047Y-12012838D02*
X667861666Y-12060457D01*
X667861666Y-12060457D02*
X667909285Y-12155695D01*
X667909285Y-12155695D02*
X667956904Y-12346171D01*
X667956904Y-12346171D02*
X667956904Y-12584266D01*
X667956904Y-12584266D02*
X667909285Y-12774742D01*
X667909285Y-12774742D02*
X667861666Y-12869980D01*
X667861666Y-12869980D02*
X667814047Y-12917600D01*
X667814047Y-12917600D02*
X667718809Y-12965219D01*
X667718809Y-12965219D02*
X667623571Y-12965219D01*
X667623571Y-12965219D02*
X667528333Y-12917600D01*
X667528333Y-12917600D02*
X667480714Y-12869980D01*
X667480714Y-12869980D02*
X667433095Y-12774742D01*
X667433095Y-12774742D02*
X667385476Y-12584266D01*
X667385476Y-12584266D02*
X667385476Y-12346171D01*
X667385476Y-12346171D02*
X667433095Y-12155695D01*
X667433095Y-12155695D02*
X667480714Y-12060457D01*
X667480714Y-12060457D02*
X667528333Y-12012838D01*
X667528333Y-12012838D02*
X667623571Y-11965219D01*
X615086666Y-162839819D02*
X615086666Y-163554104D01*
X615086666Y-163554104D02*
X615039047Y-163696961D01*
X615039047Y-163696961D02*
X614943809Y-163792200D01*
X614943809Y-163792200D02*
X614800952Y-163839819D01*
X614800952Y-163839819D02*
X614705714Y-163839819D01*
X616086666Y-163839819D02*
X615515238Y-163839819D01*
X615800952Y-163839819D02*
X615800952Y-162839819D01*
X615800952Y-162839819D02*
X615705714Y-162982676D01*
X615705714Y-162982676D02*
X615610476Y-163077914D01*
X615610476Y-163077914D02*
X615515238Y-163125533D01*
X713083333Y-82904580D02*
X713035714Y-82952200D01*
X713035714Y-82952200D02*
X712892857Y-82999819D01*
X712892857Y-82999819D02*
X712797619Y-82999819D01*
X712797619Y-82999819D02*
X712654762Y-82952200D01*
X712654762Y-82952200D02*
X712559524Y-82856961D01*
X712559524Y-82856961D02*
X712511905Y-82761723D01*
X712511905Y-82761723D02*
X712464286Y-82571247D01*
X712464286Y-82571247D02*
X712464286Y-82428390D01*
X712464286Y-82428390D02*
X712511905Y-82237914D01*
X712511905Y-82237914D02*
X712559524Y-82142676D01*
X712559524Y-82142676D02*
X712654762Y-82047438D01*
X712654762Y-82047438D02*
X712797619Y-81999819D01*
X712797619Y-81999819D02*
X712892857Y-81999819D01*
X712892857Y-81999819D02*
X713035714Y-82047438D01*
X713035714Y-82047438D02*
X713083333Y-82095057D01*
X714035714Y-82999819D02*
X713464286Y-82999819D01*
X713750000Y-82999819D02*
X713750000Y-81999819D01*
X713750000Y-81999819D02*
X713654762Y-82142676D01*
X713654762Y-82142676D02*
X713559524Y-82237914D01*
X713559524Y-82237914D02*
X713464286Y-82285533D01*
X699624819Y-149232857D02*
X699148628Y-149566190D01*
X699624819Y-149804285D02*
X698624819Y-149804285D01*
X698624819Y-149804285D02*
X698624819Y-149423333D01*
X698624819Y-149423333D02*
X698672438Y-149328095D01*
X698672438Y-149328095D02*
X698720057Y-149280476D01*
X698720057Y-149280476D02*
X698815295Y-149232857D01*
X698815295Y-149232857D02*
X698958152Y-149232857D01*
X698958152Y-149232857D02*
X699053390Y-149280476D01*
X699053390Y-149280476D02*
X699101009Y-149328095D01*
X699101009Y-149328095D02*
X699148628Y-149423333D01*
X699148628Y-149423333D02*
X699148628Y-149804285D01*
X699624819Y-148280476D02*
X699624819Y-148851904D01*
X699624819Y-148566190D02*
X698624819Y-148566190D01*
X698624819Y-148566190D02*
X698767676Y-148661428D01*
X698767676Y-148661428D02*
X698862914Y-148756666D01*
X698862914Y-148756666D02*
X698910533Y-148851904D01*
X698624819Y-147947142D02*
X698624819Y-147328095D01*
X698624819Y-147328095D02*
X699005771Y-147661428D01*
X699005771Y-147661428D02*
X699005771Y-147518571D01*
X699005771Y-147518571D02*
X699053390Y-147423333D01*
X699053390Y-147423333D02*
X699101009Y-147375714D01*
X699101009Y-147375714D02*
X699196247Y-147328095D01*
X699196247Y-147328095D02*
X699434342Y-147328095D01*
X699434342Y-147328095D02*
X699529580Y-147375714D01*
X699529580Y-147375714D02*
X699577200Y-147423333D01*
X699577200Y-147423333D02*
X699624819Y-147518571D01*
X699624819Y-147518571D02*
X699624819Y-147804285D01*
X699624819Y-147804285D02*
X699577200Y-147899523D01*
X699577200Y-147899523D02*
X699529580Y-147947142D01*
X696684819Y-42072072D02*
X696208628Y-42405405D01*
X696684819Y-42643500D02*
X695684819Y-42643500D01*
X695684819Y-42643500D02*
X695684819Y-42262548D01*
X695684819Y-42262548D02*
X695732438Y-42167310D01*
X695732438Y-42167310D02*
X695780057Y-42119691D01*
X695780057Y-42119691D02*
X695875295Y-42072072D01*
X695875295Y-42072072D02*
X696018152Y-42072072D01*
X696018152Y-42072072D02*
X696113390Y-42119691D01*
X696113390Y-42119691D02*
X696161009Y-42167310D01*
X696161009Y-42167310D02*
X696208628Y-42262548D01*
X696208628Y-42262548D02*
X696208628Y-42643500D01*
X695780057Y-41691119D02*
X695732438Y-41643500D01*
X695732438Y-41643500D02*
X695684819Y-41548262D01*
X695684819Y-41548262D02*
X695684819Y-41310167D01*
X695684819Y-41310167D02*
X695732438Y-41214929D01*
X695732438Y-41214929D02*
X695780057Y-41167310D01*
X695780057Y-41167310D02*
X695875295Y-41119691D01*
X695875295Y-41119691D02*
X695970533Y-41119691D01*
X695970533Y-41119691D02*
X696113390Y-41167310D01*
X696113390Y-41167310D02*
X696684819Y-41738738D01*
X696684819Y-41738738D02*
X696684819Y-41119691D01*
X695684819Y-40786357D02*
X695684819Y-40167310D01*
X695684819Y-40167310D02*
X696065771Y-40500643D01*
X696065771Y-40500643D02*
X696065771Y-40357786D01*
X696065771Y-40357786D02*
X696113390Y-40262548D01*
X696113390Y-40262548D02*
X696161009Y-40214929D01*
X696161009Y-40214929D02*
X696256247Y-40167310D01*
X696256247Y-40167310D02*
X696494342Y-40167310D01*
X696494342Y-40167310D02*
X696589580Y-40214929D01*
X696589580Y-40214929D02*
X696637200Y-40262548D01*
X696637200Y-40262548D02*
X696684819Y-40357786D01*
X696684819Y-40357786D02*
X696684819Y-40643500D01*
X696684819Y-40643500D02*
X696637200Y-40738738D01*
X696637200Y-40738738D02*
X696589580Y-40786357D01*
X647991905Y-161738419D02*
X647991905Y-160738419D01*
X647991905Y-160738419D02*
X648230000Y-160738419D01*
X648230000Y-160738419D02*
X648372857Y-160786038D01*
X648372857Y-160786038D02*
X648468095Y-160881276D01*
X648468095Y-160881276D02*
X648515714Y-160976514D01*
X648515714Y-160976514D02*
X648563333Y-161166990D01*
X648563333Y-161166990D02*
X648563333Y-161309847D01*
X648563333Y-161309847D02*
X648515714Y-161500323D01*
X648515714Y-161500323D02*
X648468095Y-161595561D01*
X648468095Y-161595561D02*
X648372857Y-161690800D01*
X648372857Y-161690800D02*
X648230000Y-161738419D01*
X648230000Y-161738419D02*
X647991905Y-161738419D01*
X648944286Y-160833657D02*
X648991905Y-160786038D01*
X648991905Y-160786038D02*
X649087143Y-160738419D01*
X649087143Y-160738419D02*
X649325238Y-160738419D01*
X649325238Y-160738419D02*
X649420476Y-160786038D01*
X649420476Y-160786038D02*
X649468095Y-160833657D01*
X649468095Y-160833657D02*
X649515714Y-160928895D01*
X649515714Y-160928895D02*
X649515714Y-161024133D01*
X649515714Y-161024133D02*
X649468095Y-161166990D01*
X649468095Y-161166990D02*
X648896667Y-161738419D01*
X648896667Y-161738419D02*
X649515714Y-161738419D01*
X716884819Y-42072072D02*
X716408628Y-42405405D01*
X716884819Y-42643500D02*
X715884819Y-42643500D01*
X715884819Y-42643500D02*
X715884819Y-42262548D01*
X715884819Y-42262548D02*
X715932438Y-42167310D01*
X715932438Y-42167310D02*
X715980057Y-42119691D01*
X715980057Y-42119691D02*
X716075295Y-42072072D01*
X716075295Y-42072072D02*
X716218152Y-42072072D01*
X716218152Y-42072072D02*
X716313390Y-42119691D01*
X716313390Y-42119691D02*
X716361009Y-42167310D01*
X716361009Y-42167310D02*
X716408628Y-42262548D01*
X716408628Y-42262548D02*
X716408628Y-42643500D01*
X716884819Y-41119691D02*
X716884819Y-41691119D01*
X716884819Y-41405405D02*
X715884819Y-41405405D01*
X715884819Y-41405405D02*
X716027676Y-41500643D01*
X716027676Y-41500643D02*
X716122914Y-41595881D01*
X716122914Y-41595881D02*
X716170533Y-41691119D01*
X716884819Y-40643500D02*
X716884819Y-40453024D01*
X716884819Y-40453024D02*
X716837200Y-40357786D01*
X716837200Y-40357786D02*
X716789580Y-40310167D01*
X716789580Y-40310167D02*
X716646723Y-40214929D01*
X716646723Y-40214929D02*
X716456247Y-40167310D01*
X716456247Y-40167310D02*
X716075295Y-40167310D01*
X716075295Y-40167310D02*
X715980057Y-40214929D01*
X715980057Y-40214929D02*
X715932438Y-40262548D01*
X715932438Y-40262548D02*
X715884819Y-40357786D01*
X715884819Y-40357786D02*
X715884819Y-40548262D01*
X715884819Y-40548262D02*
X715932438Y-40643500D01*
X715932438Y-40643500D02*
X715980057Y-40691119D01*
X715980057Y-40691119D02*
X716075295Y-40738738D01*
X716075295Y-40738738D02*
X716313390Y-40738738D01*
X716313390Y-40738738D02*
X716408628Y-40691119D01*
X716408628Y-40691119D02*
X716456247Y-40643500D01*
X716456247Y-40643500D02*
X716503866Y-40548262D01*
X716503866Y-40548262D02*
X716503866Y-40357786D01*
X716503866Y-40357786D02*
X716456247Y-40262548D01*
X716456247Y-40262548D02*
X716408628Y-40214929D01*
X716408628Y-40214929D02*
X716313390Y-40167310D01*
X666528333Y-155408419D02*
X666195000Y-154932228D01*
X665956905Y-155408419D02*
X665956905Y-154408419D01*
X665956905Y-154408419D02*
X666337857Y-154408419D01*
X666337857Y-154408419D02*
X666433095Y-154456038D01*
X666433095Y-154456038D02*
X666480714Y-154503657D01*
X666480714Y-154503657D02*
X666528333Y-154598895D01*
X666528333Y-154598895D02*
X666528333Y-154741752D01*
X666528333Y-154741752D02*
X666480714Y-154836990D01*
X666480714Y-154836990D02*
X666433095Y-154884609D01*
X666433095Y-154884609D02*
X666337857Y-154932228D01*
X666337857Y-154932228D02*
X665956905Y-154932228D01*
X666909286Y-154503657D02*
X666956905Y-154456038D01*
X666956905Y-154456038D02*
X667052143Y-154408419D01*
X667052143Y-154408419D02*
X667290238Y-154408419D01*
X667290238Y-154408419D02*
X667385476Y-154456038D01*
X667385476Y-154456038D02*
X667433095Y-154503657D01*
X667433095Y-154503657D02*
X667480714Y-154598895D01*
X667480714Y-154598895D02*
X667480714Y-154694133D01*
X667480714Y-154694133D02*
X667433095Y-154836990D01*
X667433095Y-154836990D02*
X666861667Y-155408419D01*
X666861667Y-155408419D02*
X667480714Y-155408419D01*
X647991905Y-126127619D02*
X647991905Y-125127619D01*
X647991905Y-125127619D02*
X648230000Y-125127619D01*
X648230000Y-125127619D02*
X648372857Y-125175238D01*
X648372857Y-125175238D02*
X648468095Y-125270476D01*
X648468095Y-125270476D02*
X648515714Y-125365714D01*
X648515714Y-125365714D02*
X648563333Y-125556190D01*
X648563333Y-125556190D02*
X648563333Y-125699047D01*
X648563333Y-125699047D02*
X648515714Y-125889523D01*
X648515714Y-125889523D02*
X648468095Y-125984761D01*
X648468095Y-125984761D02*
X648372857Y-126080000D01*
X648372857Y-126080000D02*
X648230000Y-126127619D01*
X648230000Y-126127619D02*
X647991905Y-126127619D01*
X649420476Y-125460952D02*
X649420476Y-126127619D01*
X649182381Y-125080000D02*
X648944286Y-125794285D01*
X648944286Y-125794285D02*
X649563333Y-125794285D01*
X666528333Y-66381419D02*
X666195000Y-65905228D01*
X665956905Y-66381419D02*
X665956905Y-65381419D01*
X665956905Y-65381419D02*
X666337857Y-65381419D01*
X666337857Y-65381419D02*
X666433095Y-65429038D01*
X666433095Y-65429038D02*
X666480714Y-65476657D01*
X666480714Y-65476657D02*
X666528333Y-65571895D01*
X666528333Y-65571895D02*
X666528333Y-65714752D01*
X666528333Y-65714752D02*
X666480714Y-65809990D01*
X666480714Y-65809990D02*
X666433095Y-65857609D01*
X666433095Y-65857609D02*
X666337857Y-65905228D01*
X666337857Y-65905228D02*
X665956905Y-65905228D01*
X666861667Y-65381419D02*
X667528333Y-65381419D01*
X667528333Y-65381419D02*
X667099762Y-66381419D01*
X721224819Y-149232857D02*
X720748628Y-149566190D01*
X721224819Y-149804285D02*
X720224819Y-149804285D01*
X720224819Y-149804285D02*
X720224819Y-149423333D01*
X720224819Y-149423333D02*
X720272438Y-149328095D01*
X720272438Y-149328095D02*
X720320057Y-149280476D01*
X720320057Y-149280476D02*
X720415295Y-149232857D01*
X720415295Y-149232857D02*
X720558152Y-149232857D01*
X720558152Y-149232857D02*
X720653390Y-149280476D01*
X720653390Y-149280476D02*
X720701009Y-149328095D01*
X720701009Y-149328095D02*
X720748628Y-149423333D01*
X720748628Y-149423333D02*
X720748628Y-149804285D01*
X721224819Y-148280476D02*
X721224819Y-148851904D01*
X721224819Y-148566190D02*
X720224819Y-148566190D01*
X720224819Y-148566190D02*
X720367676Y-148661428D01*
X720367676Y-148661428D02*
X720462914Y-148756666D01*
X720462914Y-148756666D02*
X720510533Y-148851904D01*
X720224819Y-147947142D02*
X720224819Y-147280476D01*
X720224819Y-147280476D02*
X721224819Y-147709047D01*
X711884819Y-42072072D02*
X711408628Y-42405405D01*
X711884819Y-42643500D02*
X710884819Y-42643500D01*
X710884819Y-42643500D02*
X710884819Y-42262548D01*
X710884819Y-42262548D02*
X710932438Y-42167310D01*
X710932438Y-42167310D02*
X710980057Y-42119691D01*
X710980057Y-42119691D02*
X711075295Y-42072072D01*
X711075295Y-42072072D02*
X711218152Y-42072072D01*
X711218152Y-42072072D02*
X711313390Y-42119691D01*
X711313390Y-42119691D02*
X711361009Y-42167310D01*
X711361009Y-42167310D02*
X711408628Y-42262548D01*
X711408628Y-42262548D02*
X711408628Y-42643500D01*
X710980057Y-41691119D02*
X710932438Y-41643500D01*
X710932438Y-41643500D02*
X710884819Y-41548262D01*
X710884819Y-41548262D02*
X710884819Y-41310167D01*
X710884819Y-41310167D02*
X710932438Y-41214929D01*
X710932438Y-41214929D02*
X710980057Y-41167310D01*
X710980057Y-41167310D02*
X711075295Y-41119691D01*
X711075295Y-41119691D02*
X711170533Y-41119691D01*
X711170533Y-41119691D02*
X711313390Y-41167310D01*
X711313390Y-41167310D02*
X711884819Y-41738738D01*
X711884819Y-41738738D02*
X711884819Y-41119691D01*
X710884819Y-40500643D02*
X710884819Y-40405405D01*
X710884819Y-40405405D02*
X710932438Y-40310167D01*
X710932438Y-40310167D02*
X710980057Y-40262548D01*
X710980057Y-40262548D02*
X711075295Y-40214929D01*
X711075295Y-40214929D02*
X711265771Y-40167310D01*
X711265771Y-40167310D02*
X711503866Y-40167310D01*
X711503866Y-40167310D02*
X711694342Y-40214929D01*
X711694342Y-40214929D02*
X711789580Y-40262548D01*
X711789580Y-40262548D02*
X711837200Y-40310167D01*
X711837200Y-40310167D02*
X711884819Y-40405405D01*
X711884819Y-40405405D02*
X711884819Y-40500643D01*
X711884819Y-40500643D02*
X711837200Y-40595881D01*
X711837200Y-40595881D02*
X711789580Y-40643500D01*
X711789580Y-40643500D02*
X711694342Y-40691119D01*
X711694342Y-40691119D02*
X711503866Y-40738738D01*
X711503866Y-40738738D02*
X711265771Y-40738738D01*
X711265771Y-40738738D02*
X711075295Y-40691119D01*
X711075295Y-40691119D02*
X710980057Y-40643500D01*
X710980057Y-40643500D02*
X710932438Y-40595881D01*
X710932438Y-40595881D02*
X710884819Y-40500643D01*
X666528333Y-48576019D02*
X666195000Y-48099828D01*
X665956905Y-48576019D02*
X665956905Y-47576019D01*
X665956905Y-47576019D02*
X666337857Y-47576019D01*
X666337857Y-47576019D02*
X666433095Y-47623638D01*
X666433095Y-47623638D02*
X666480714Y-47671257D01*
X666480714Y-47671257D02*
X666528333Y-47766495D01*
X666528333Y-47766495D02*
X666528333Y-47909352D01*
X666528333Y-47909352D02*
X666480714Y-48004590D01*
X666480714Y-48004590D02*
X666433095Y-48052209D01*
X666433095Y-48052209D02*
X666337857Y-48099828D01*
X666337857Y-48099828D02*
X665956905Y-48099828D01*
X667099762Y-48004590D02*
X667004524Y-47956971D01*
X667004524Y-47956971D02*
X666956905Y-47909352D01*
X666956905Y-47909352D02*
X666909286Y-47814114D01*
X666909286Y-47814114D02*
X666909286Y-47766495D01*
X666909286Y-47766495D02*
X666956905Y-47671257D01*
X666956905Y-47671257D02*
X667004524Y-47623638D01*
X667004524Y-47623638D02*
X667099762Y-47576019D01*
X667099762Y-47576019D02*
X667290238Y-47576019D01*
X667290238Y-47576019D02*
X667385476Y-47623638D01*
X667385476Y-47623638D02*
X667433095Y-47671257D01*
X667433095Y-47671257D02*
X667480714Y-47766495D01*
X667480714Y-47766495D02*
X667480714Y-47814114D01*
X667480714Y-47814114D02*
X667433095Y-47909352D01*
X667433095Y-47909352D02*
X667385476Y-47956971D01*
X667385476Y-47956971D02*
X667290238Y-48004590D01*
X667290238Y-48004590D02*
X667099762Y-48004590D01*
X667099762Y-48004590D02*
X667004524Y-48052209D01*
X667004524Y-48052209D02*
X666956905Y-48099828D01*
X666956905Y-48099828D02*
X666909286Y-48195066D01*
X666909286Y-48195066D02*
X666909286Y-48385542D01*
X666909286Y-48385542D02*
X666956905Y-48480780D01*
X666956905Y-48480780D02*
X667004524Y-48528400D01*
X667004524Y-48528400D02*
X667099762Y-48576019D01*
X667099762Y-48576019D02*
X667290238Y-48576019D01*
X667290238Y-48576019D02*
X667385476Y-48528400D01*
X667385476Y-48528400D02*
X667433095Y-48480780D01*
X667433095Y-48480780D02*
X667480714Y-48385542D01*
X667480714Y-48385542D02*
X667480714Y-48195066D01*
X667480714Y-48195066D02*
X667433095Y-48099828D01*
X667433095Y-48099828D02*
X667385476Y-48052209D01*
X667385476Y-48052209D02*
X667290238Y-48004590D01*
X666528333Y-84186819D02*
X666195000Y-83710628D01*
X665956905Y-84186819D02*
X665956905Y-83186819D01*
X665956905Y-83186819D02*
X666337857Y-83186819D01*
X666337857Y-83186819D02*
X666433095Y-83234438D01*
X666433095Y-83234438D02*
X666480714Y-83282057D01*
X666480714Y-83282057D02*
X666528333Y-83377295D01*
X666528333Y-83377295D02*
X666528333Y-83520152D01*
X666528333Y-83520152D02*
X666480714Y-83615390D01*
X666480714Y-83615390D02*
X666433095Y-83663009D01*
X666433095Y-83663009D02*
X666337857Y-83710628D01*
X666337857Y-83710628D02*
X665956905Y-83710628D01*
X667385476Y-83186819D02*
X667195000Y-83186819D01*
X667195000Y-83186819D02*
X667099762Y-83234438D01*
X667099762Y-83234438D02*
X667052143Y-83282057D01*
X667052143Y-83282057D02*
X666956905Y-83424914D01*
X666956905Y-83424914D02*
X666909286Y-83615390D01*
X666909286Y-83615390D02*
X666909286Y-83996342D01*
X666909286Y-83996342D02*
X666956905Y-84091580D01*
X666956905Y-84091580D02*
X667004524Y-84139200D01*
X667004524Y-84139200D02*
X667099762Y-84186819D01*
X667099762Y-84186819D02*
X667290238Y-84186819D01*
X667290238Y-84186819D02*
X667385476Y-84139200D01*
X667385476Y-84139200D02*
X667433095Y-84091580D01*
X667433095Y-84091580D02*
X667480714Y-83996342D01*
X667480714Y-83996342D02*
X667480714Y-83758247D01*
X667480714Y-83758247D02*
X667433095Y-83663009D01*
X667433095Y-83663009D02*
X667385476Y-83615390D01*
X667385476Y-83615390D02*
X667290238Y-83567771D01*
X667290238Y-83567771D02*
X667099762Y-83567771D01*
X667099762Y-83567771D02*
X667004524Y-83615390D01*
X667004524Y-83615390D02*
X666956905Y-83663009D01*
X666956905Y-83663009D02*
X666909286Y-83758247D01*
X666528333Y-30770619D02*
X666195000Y-30294428D01*
X665956905Y-30770619D02*
X665956905Y-29770619D01*
X665956905Y-29770619D02*
X666337857Y-29770619D01*
X666337857Y-29770619D02*
X666433095Y-29818238D01*
X666433095Y-29818238D02*
X666480714Y-29865857D01*
X666480714Y-29865857D02*
X666528333Y-29961095D01*
X666528333Y-29961095D02*
X666528333Y-30103952D01*
X666528333Y-30103952D02*
X666480714Y-30199190D01*
X666480714Y-30199190D02*
X666433095Y-30246809D01*
X666433095Y-30246809D02*
X666337857Y-30294428D01*
X666337857Y-30294428D02*
X665956905Y-30294428D01*
X667004524Y-30770619D02*
X667195000Y-30770619D01*
X667195000Y-30770619D02*
X667290238Y-30723000D01*
X667290238Y-30723000D02*
X667337857Y-30675380D01*
X667337857Y-30675380D02*
X667433095Y-30532523D01*
X667433095Y-30532523D02*
X667480714Y-30342047D01*
X667480714Y-30342047D02*
X667480714Y-29961095D01*
X667480714Y-29961095D02*
X667433095Y-29865857D01*
X667433095Y-29865857D02*
X667385476Y-29818238D01*
X667385476Y-29818238D02*
X667290238Y-29770619D01*
X667290238Y-29770619D02*
X667099762Y-29770619D01*
X667099762Y-29770619D02*
X667004524Y-29818238D01*
X667004524Y-29818238D02*
X666956905Y-29865857D01*
X666956905Y-29865857D02*
X666909286Y-29961095D01*
X666909286Y-29961095D02*
X666909286Y-30199190D01*
X666909286Y-30199190D02*
X666956905Y-30294428D01*
X666956905Y-30294428D02*
X667004524Y-30342047D01*
X667004524Y-30342047D02*
X667099762Y-30389666D01*
X667099762Y-30389666D02*
X667290238Y-30389666D01*
X667290238Y-30389666D02*
X667385476Y-30342047D01*
X667385476Y-30342047D02*
X667433095Y-30294428D01*
X667433095Y-30294428D02*
X667480714Y-30199190D01*
X701884819Y-42072072D02*
X701408628Y-42405405D01*
X701884819Y-42643500D02*
X700884819Y-42643500D01*
X700884819Y-42643500D02*
X700884819Y-42262548D01*
X700884819Y-42262548D02*
X700932438Y-42167310D01*
X700932438Y-42167310D02*
X700980057Y-42119691D01*
X700980057Y-42119691D02*
X701075295Y-42072072D01*
X701075295Y-42072072D02*
X701218152Y-42072072D01*
X701218152Y-42072072D02*
X701313390Y-42119691D01*
X701313390Y-42119691D02*
X701361009Y-42167310D01*
X701361009Y-42167310D02*
X701408628Y-42262548D01*
X701408628Y-42262548D02*
X701408628Y-42643500D01*
X700980057Y-41691119D02*
X700932438Y-41643500D01*
X700932438Y-41643500D02*
X700884819Y-41548262D01*
X700884819Y-41548262D02*
X700884819Y-41310167D01*
X700884819Y-41310167D02*
X700932438Y-41214929D01*
X700932438Y-41214929D02*
X700980057Y-41167310D01*
X700980057Y-41167310D02*
X701075295Y-41119691D01*
X701075295Y-41119691D02*
X701170533Y-41119691D01*
X701170533Y-41119691D02*
X701313390Y-41167310D01*
X701313390Y-41167310D02*
X701884819Y-41738738D01*
X701884819Y-41738738D02*
X701884819Y-41119691D01*
X700980057Y-40738738D02*
X700932438Y-40691119D01*
X700932438Y-40691119D02*
X700884819Y-40595881D01*
X700884819Y-40595881D02*
X700884819Y-40357786D01*
X700884819Y-40357786D02*
X700932438Y-40262548D01*
X700932438Y-40262548D02*
X700980057Y-40214929D01*
X700980057Y-40214929D02*
X701075295Y-40167310D01*
X701075295Y-40167310D02*
X701170533Y-40167310D01*
X701170533Y-40167310D02*
X701313390Y-40214929D01*
X701313390Y-40214929D02*
X701884819Y-40786357D01*
X701884819Y-40786357D02*
X701884819Y-40167310D01*
X589331009Y-48005168D02*
X589378628Y-47862311D01*
X589378628Y-47862311D02*
X589426247Y-47814692D01*
X589426247Y-47814692D02*
X589521485Y-47767073D01*
X589521485Y-47767073D02*
X589664342Y-47767073D01*
X589664342Y-47767073D02*
X589759580Y-47814692D01*
X589759580Y-47814692D02*
X589807200Y-47862311D01*
X589807200Y-47862311D02*
X589854819Y-47957549D01*
X589854819Y-47957549D02*
X589854819Y-48338501D01*
X589854819Y-48338501D02*
X588854819Y-48338501D01*
X588854819Y-48338501D02*
X588854819Y-48005168D01*
X588854819Y-48005168D02*
X588902438Y-47909930D01*
X588902438Y-47909930D02*
X588950057Y-47862311D01*
X588950057Y-47862311D02*
X589045295Y-47814692D01*
X589045295Y-47814692D02*
X589140533Y-47814692D01*
X589140533Y-47814692D02*
X589235771Y-47862311D01*
X589235771Y-47862311D02*
X589283390Y-47909930D01*
X589283390Y-47909930D02*
X589331009Y-48005168D01*
X589331009Y-48005168D02*
X589331009Y-48338501D01*
X588854819Y-47433739D02*
X588854819Y-46767073D01*
X588854819Y-46767073D02*
X589854819Y-47433739D01*
X589854819Y-47433739D02*
X589854819Y-46767073D01*
X589854819Y-45862311D02*
X589854819Y-46433739D01*
X589854819Y-46148025D02*
X588854819Y-46148025D01*
X588854819Y-46148025D02*
X588997676Y-46243263D01*
X588997676Y-46243263D02*
X589092914Y-46338501D01*
X589092914Y-46338501D02*
X589140533Y-46433739D01*
X689994819Y-123251904D02*
X690804342Y-123251904D01*
X690804342Y-123251904D02*
X690899580Y-123204285D01*
X690899580Y-123204285D02*
X690947200Y-123156666D01*
X690947200Y-123156666D02*
X690994819Y-123061428D01*
X690994819Y-123061428D02*
X690994819Y-122870952D01*
X690994819Y-122870952D02*
X690947200Y-122775714D01*
X690947200Y-122775714D02*
X690899580Y-122728095D01*
X690899580Y-122728095D02*
X690804342Y-122680476D01*
X690804342Y-122680476D02*
X689994819Y-122680476D01*
X689994819Y-122299523D02*
X689994819Y-121680476D01*
X689994819Y-121680476D02*
X690375771Y-122013809D01*
X690375771Y-122013809D02*
X690375771Y-121870952D01*
X690375771Y-121870952D02*
X690423390Y-121775714D01*
X690423390Y-121775714D02*
X690471009Y-121728095D01*
X690471009Y-121728095D02*
X690566247Y-121680476D01*
X690566247Y-121680476D02*
X690804342Y-121680476D01*
X690804342Y-121680476D02*
X690899580Y-121728095D01*
X690899580Y-121728095D02*
X690947200Y-121775714D01*
X690947200Y-121775714D02*
X690994819Y-121870952D01*
X690994819Y-121870952D02*
X690994819Y-122156666D01*
X690994819Y-122156666D02*
X690947200Y-122251904D01*
X690947200Y-122251904D02*
X690899580Y-122299523D01*
X666528333Y-119797619D02*
X666195000Y-119321428D01*
X665956905Y-119797619D02*
X665956905Y-118797619D01*
X665956905Y-118797619D02*
X666337857Y-118797619D01*
X666337857Y-118797619D02*
X666433095Y-118845238D01*
X666433095Y-118845238D02*
X666480714Y-118892857D01*
X666480714Y-118892857D02*
X666528333Y-118988095D01*
X666528333Y-118988095D02*
X666528333Y-119130952D01*
X666528333Y-119130952D02*
X666480714Y-119226190D01*
X666480714Y-119226190D02*
X666433095Y-119273809D01*
X666433095Y-119273809D02*
X666337857Y-119321428D01*
X666337857Y-119321428D02*
X665956905Y-119321428D01*
X667385476Y-119130952D02*
X667385476Y-119797619D01*
X667147381Y-118750000D02*
X666909286Y-119464285D01*
X666909286Y-119464285D02*
X667528333Y-119464285D01*
X666528333Y-137603019D02*
X666195000Y-137126828D01*
X665956905Y-137603019D02*
X665956905Y-136603019D01*
X665956905Y-136603019D02*
X666337857Y-136603019D01*
X666337857Y-136603019D02*
X666433095Y-136650638D01*
X666433095Y-136650638D02*
X666480714Y-136698257D01*
X666480714Y-136698257D02*
X666528333Y-136793495D01*
X666528333Y-136793495D02*
X666528333Y-136936352D01*
X666528333Y-136936352D02*
X666480714Y-137031590D01*
X666480714Y-137031590D02*
X666433095Y-137079209D01*
X666433095Y-137079209D02*
X666337857Y-137126828D01*
X666337857Y-137126828D02*
X665956905Y-137126828D01*
X666861667Y-136603019D02*
X667480714Y-136603019D01*
X667480714Y-136603019D02*
X667147381Y-136983971D01*
X667147381Y-136983971D02*
X667290238Y-136983971D01*
X667290238Y-136983971D02*
X667385476Y-137031590D01*
X667385476Y-137031590D02*
X667433095Y-137079209D01*
X667433095Y-137079209D02*
X667480714Y-137174447D01*
X667480714Y-137174447D02*
X667480714Y-137412542D01*
X667480714Y-137412542D02*
X667433095Y-137507780D01*
X667433095Y-137507780D02*
X667385476Y-137555400D01*
X667385476Y-137555400D02*
X667290238Y-137603019D01*
X667290238Y-137603019D02*
X667004524Y-137603019D01*
X667004524Y-137603019D02*
X666909286Y-137555400D01*
X666909286Y-137555400D02*
X666861667Y-137507780D01*
X647991905Y-108322219D02*
X647991905Y-107322219D01*
X647991905Y-107322219D02*
X648230000Y-107322219D01*
X648230000Y-107322219D02*
X648372857Y-107369838D01*
X648372857Y-107369838D02*
X648468095Y-107465076D01*
X648468095Y-107465076D02*
X648515714Y-107560314D01*
X648515714Y-107560314D02*
X648563333Y-107750790D01*
X648563333Y-107750790D02*
X648563333Y-107893647D01*
X648563333Y-107893647D02*
X648515714Y-108084123D01*
X648515714Y-108084123D02*
X648468095Y-108179361D01*
X648468095Y-108179361D02*
X648372857Y-108274600D01*
X648372857Y-108274600D02*
X648230000Y-108322219D01*
X648230000Y-108322219D02*
X647991905Y-108322219D01*
X649468095Y-107322219D02*
X648991905Y-107322219D01*
X648991905Y-107322219D02*
X648944286Y-107798409D01*
X648944286Y-107798409D02*
X648991905Y-107750790D01*
X648991905Y-107750790D02*
X649087143Y-107703171D01*
X649087143Y-107703171D02*
X649325238Y-107703171D01*
X649325238Y-107703171D02*
X649420476Y-107750790D01*
X649420476Y-107750790D02*
X649468095Y-107798409D01*
X649468095Y-107798409D02*
X649515714Y-107893647D01*
X649515714Y-107893647D02*
X649515714Y-108131742D01*
X649515714Y-108131742D02*
X649468095Y-108226980D01*
X649468095Y-108226980D02*
X649420476Y-108274600D01*
X649420476Y-108274600D02*
X649325238Y-108322219D01*
X649325238Y-108322219D02*
X649087143Y-108322219D01*
X649087143Y-108322219D02*
X648991905Y-108274600D01*
X648991905Y-108274600D02*
X648944286Y-108226980D01*
X615086666Y-9905219D02*
X615086666Y-10619504D01*
X615086666Y-10619504D02*
X615039047Y-10762361D01*
X615039047Y-10762361D02*
X614943809Y-10857600D01*
X614943809Y-10857600D02*
X614800952Y-10905219D01*
X614800952Y-10905219D02*
X614705714Y-10905219D01*
X615515238Y-10000457D02*
X615562857Y-9952838D01*
X615562857Y-9952838D02*
X615658095Y-9905219D01*
X615658095Y-9905219D02*
X615896190Y-9905219D01*
X615896190Y-9905219D02*
X615991428Y-9952838D01*
X615991428Y-9952838D02*
X616039047Y-10000457D01*
X616039047Y-10000457D02*
X616086666Y-10095695D01*
X616086666Y-10095695D02*
X616086666Y-10190933D01*
X616086666Y-10190933D02*
X616039047Y-10333790D01*
X616039047Y-10333790D02*
X615467619Y-10905219D01*
X615467619Y-10905219D02*
X616086666Y-10905219D01*
X600865714Y-118844104D02*
X601341904Y-118844104D01*
X600770476Y-119129819D02*
X601103809Y-118129819D01*
X601103809Y-118129819D02*
X601437142Y-119129819D01*
X602294285Y-119129819D02*
X601722857Y-119129819D01*
X602008571Y-119129819D02*
X602008571Y-118129819D01*
X602008571Y-118129819D02*
X601913333Y-118272676D01*
X601913333Y-118272676D02*
X601818095Y-118367914D01*
X601818095Y-118367914D02*
X601722857Y-118415533D01*
X602841904Y-78580180D02*
X602841904Y-77770657D01*
X602841904Y-77770657D02*
X602794285Y-77675419D01*
X602794285Y-77675419D02*
X602746666Y-77627800D01*
X602746666Y-77627800D02*
X602651428Y-77580180D01*
X602651428Y-77580180D02*
X602460952Y-77580180D01*
X602460952Y-77580180D02*
X602365714Y-77627800D01*
X602365714Y-77627800D02*
X602318095Y-77675419D01*
X602318095Y-77675419D02*
X602270476Y-77770657D01*
X602270476Y-77770657D02*
X602270476Y-78580180D01*
X601841904Y-77627800D02*
X601699047Y-77580180D01*
X601699047Y-77580180D02*
X601460952Y-77580180D01*
X601460952Y-77580180D02*
X601365714Y-77627800D01*
X601365714Y-77627800D02*
X601318095Y-77675419D01*
X601318095Y-77675419D02*
X601270476Y-77770657D01*
X601270476Y-77770657D02*
X601270476Y-77865895D01*
X601270476Y-77865895D02*
X601318095Y-77961133D01*
X601318095Y-77961133D02*
X601365714Y-78008752D01*
X601365714Y-78008752D02*
X601460952Y-78056371D01*
X601460952Y-78056371D02*
X601651428Y-78103990D01*
X601651428Y-78103990D02*
X601746666Y-78151609D01*
X601746666Y-78151609D02*
X601794285Y-78199228D01*
X601794285Y-78199228D02*
X601841904Y-78294466D01*
X601841904Y-78294466D02*
X601841904Y-78389704D01*
X601841904Y-78389704D02*
X601794285Y-78484942D01*
X601794285Y-78484942D02*
X601746666Y-78532561D01*
X601746666Y-78532561D02*
X601651428Y-78580180D01*
X601651428Y-78580180D02*
X601413333Y-78580180D01*
X601413333Y-78580180D02*
X601270476Y-78532561D01*
X600508571Y-78103990D02*
X600365714Y-78056371D01*
X600365714Y-78056371D02*
X600318095Y-78008752D01*
X600318095Y-78008752D02*
X600270476Y-77913514D01*
X600270476Y-77913514D02*
X600270476Y-77770657D01*
X600270476Y-77770657D02*
X600318095Y-77675419D01*
X600318095Y-77675419D02*
X600365714Y-77627800D01*
X600365714Y-77627800D02*
X600460952Y-77580180D01*
X600460952Y-77580180D02*
X600841904Y-77580180D01*
X600841904Y-77580180D02*
X600841904Y-78580180D01*
X600841904Y-78580180D02*
X600508571Y-78580180D01*
X600508571Y-78580180D02*
X600413333Y-78532561D01*
X600413333Y-78532561D02*
X600365714Y-78484942D01*
X600365714Y-78484942D02*
X600318095Y-78389704D01*
X600318095Y-78389704D02*
X600318095Y-78294466D01*
X600318095Y-78294466D02*
X600365714Y-78199228D01*
X600365714Y-78199228D02*
X600413333Y-78151609D01*
X600413333Y-78151609D02*
X600508571Y-78103990D01*
X600508571Y-78103990D02*
X600841904Y-78103990D01*
X715624819Y-149232857D02*
X715148628Y-149566190D01*
X715624819Y-149804285D02*
X714624819Y-149804285D01*
X714624819Y-149804285D02*
X714624819Y-149423333D01*
X714624819Y-149423333D02*
X714672438Y-149328095D01*
X714672438Y-149328095D02*
X714720057Y-149280476D01*
X714720057Y-149280476D02*
X714815295Y-149232857D01*
X714815295Y-149232857D02*
X714958152Y-149232857D01*
X714958152Y-149232857D02*
X715053390Y-149280476D01*
X715053390Y-149280476D02*
X715101009Y-149328095D01*
X715101009Y-149328095D02*
X715148628Y-149423333D01*
X715148628Y-149423333D02*
X715148628Y-149804285D01*
X715624819Y-148280476D02*
X715624819Y-148851904D01*
X715624819Y-148566190D02*
X714624819Y-148566190D01*
X714624819Y-148566190D02*
X714767676Y-148661428D01*
X714767676Y-148661428D02*
X714862914Y-148756666D01*
X714862914Y-148756666D02*
X714910533Y-148851904D01*
X714624819Y-147423333D02*
X714624819Y-147613809D01*
X714624819Y-147613809D02*
X714672438Y-147709047D01*
X714672438Y-147709047D02*
X714720057Y-147756666D01*
X714720057Y-147756666D02*
X714862914Y-147851904D01*
X714862914Y-147851904D02*
X715053390Y-147899523D01*
X715053390Y-147899523D02*
X715434342Y-147899523D01*
X715434342Y-147899523D02*
X715529580Y-147851904D01*
X715529580Y-147851904D02*
X715577200Y-147804285D01*
X715577200Y-147804285D02*
X715624819Y-147709047D01*
X715624819Y-147709047D02*
X715624819Y-147518571D01*
X715624819Y-147518571D02*
X715577200Y-147423333D01*
X715577200Y-147423333D02*
X715529580Y-147375714D01*
X715529580Y-147375714D02*
X715434342Y-147328095D01*
X715434342Y-147328095D02*
X715196247Y-147328095D01*
X715196247Y-147328095D02*
X715101009Y-147375714D01*
X715101009Y-147375714D02*
X715053390Y-147423333D01*
X715053390Y-147423333D02*
X715005771Y-147518571D01*
X715005771Y-147518571D02*
X715005771Y-147709047D01*
X715005771Y-147709047D02*
X715053390Y-147804285D01*
X715053390Y-147804285D02*
X715101009Y-147851904D01*
X715101009Y-147851904D02*
X715196247Y-147899523D01*
D12*
%TO.C,G\u002A\u002A\u002A*%
G36*
X591202184Y-171288424D02*
G01*
X591202184Y-175489052D01*
X584922705Y-175489052D01*
X578643227Y-175489052D01*
X578643227Y-173560672D01*
X579282865Y-173560672D01*
X579285821Y-173568485D01*
X579292124Y-173569653D01*
X579297982Y-173568159D01*
X579313890Y-173561180D01*
X579349495Y-173544338D01*
X579402554Y-173518732D01*
X579470822Y-173485458D01*
X579552052Y-173445617D01*
X579644000Y-173400305D01*
X579744421Y-173350622D01*
X579851069Y-173297664D01*
X579857423Y-173294504D01*
X579970559Y-173238521D01*
X580102701Y-173173665D01*
X580250647Y-173101473D01*
X580411193Y-173023488D01*
X580581137Y-172941249D01*
X580757276Y-172856297D01*
X580936408Y-172770171D01*
X581115331Y-172684412D01*
X581290841Y-172600561D01*
X581459736Y-172520158D01*
X581618814Y-172444743D01*
X581764871Y-172375857D01*
X581867081Y-172327936D01*
X581905059Y-172310186D01*
X581936320Y-172295310D01*
X581959548Y-172283530D01*
X581973430Y-172275068D01*
X581976649Y-172270144D01*
X581967892Y-172268980D01*
X581945843Y-172271798D01*
X581909187Y-172278819D01*
X581856611Y-172290263D01*
X581786799Y-172306354D01*
X581698437Y-172327311D01*
X581590209Y-172353356D01*
X581460801Y-172384712D01*
X581308898Y-172421598D01*
X581304646Y-172422630D01*
X581191072Y-172450243D01*
X581075436Y-172478417D01*
X580962180Y-172506068D01*
X580855744Y-172532107D01*
X580760568Y-172555450D01*
X580681094Y-172575010D01*
X580630093Y-172587629D01*
X580558691Y-172605331D01*
X580493559Y-172621411D01*
X580439253Y-172634751D01*
X580400324Y-172644232D01*
X580382727Y-172648421D01*
X580361045Y-172651900D01*
X580354775Y-172644357D01*
X580359936Y-172619866D01*
X580360983Y-172616052D01*
X580366408Y-172594131D01*
X580376365Y-172551658D01*
X580390079Y-172492032D01*
X580406775Y-172418648D01*
X580425675Y-172334904D01*
X580446006Y-172244196D01*
X580451288Y-172220534D01*
X580472842Y-172124008D01*
X580498553Y-172009086D01*
X580527179Y-171881300D01*
X580557480Y-171746184D01*
X580588216Y-171609268D01*
X580618146Y-171476087D01*
X580642433Y-171368144D01*
X580668027Y-171254366D01*
X580693237Y-171142125D01*
X580717257Y-171035014D01*
X580739283Y-170936628D01*
X580758510Y-170850559D01*
X580774135Y-170780403D01*
X580785352Y-170729752D01*
X580787229Y-170721218D01*
X580820194Y-170571008D01*
X580869964Y-170570977D01*
X580896851Y-170571812D01*
X580943796Y-170574164D01*
X581006394Y-170577776D01*
X581080238Y-170582388D01*
X581160922Y-170587744D01*
X581188844Y-170589668D01*
X581297276Y-170596915D01*
X581403906Y-170603490D01*
X581505977Y-170609270D01*
X581600731Y-170614132D01*
X581685411Y-170617955D01*
X581757259Y-170620616D01*
X581813517Y-170621992D01*
X581851427Y-170621961D01*
X581868232Y-170620402D01*
X581868823Y-170619839D01*
X581858276Y-170612897D01*
X581828876Y-170597237D01*
X581783982Y-170574552D01*
X581726952Y-170546535D01*
X581661144Y-170514878D01*
X581651121Y-170510109D01*
X581564459Y-170468889D01*
X581467176Y-170422544D01*
X581368412Y-170375433D01*
X581277307Y-170331914D01*
X581231058Y-170309788D01*
X581115260Y-170254440D01*
X580997268Y-170198217D01*
X580879223Y-170142125D01*
X580763268Y-170087172D01*
X580651542Y-170034364D01*
X580546187Y-169984709D01*
X580449345Y-169939214D01*
X580363157Y-169898886D01*
X580289763Y-169864731D01*
X580231306Y-169837757D01*
X580189925Y-169818970D01*
X580167763Y-169809378D01*
X580164891Y-169808368D01*
X580161271Y-169807150D01*
X580158081Y-169806371D01*
X580154910Y-169807647D01*
X580151346Y-169812597D01*
X580146977Y-169822838D01*
X580141391Y-169839987D01*
X580134175Y-169865663D01*
X580124919Y-169901483D01*
X580113211Y-169949065D01*
X580098638Y-170010026D01*
X580080788Y-170085985D01*
X580059250Y-170178558D01*
X580033611Y-170289364D01*
X580003461Y-170420021D01*
X579968386Y-170572146D01*
X579948866Y-170656797D01*
X579917061Y-170794659D01*
X579884372Y-170936276D01*
X579851687Y-171077798D01*
X579819898Y-171215378D01*
X579789892Y-171345169D01*
X579762559Y-171463323D01*
X579738789Y-171565991D01*
X579719471Y-171649326D01*
X579716415Y-171662495D01*
X579695904Y-171750957D01*
X579671028Y-171858418D01*
X579642919Y-171979972D01*
X579612711Y-172110713D01*
X579581538Y-172245735D01*
X579550532Y-172380133D01*
X579520828Y-172509000D01*
X579515234Y-172533282D01*
X579486944Y-172655947D01*
X579457980Y-172781254D01*
X579429315Y-172905014D01*
X579401921Y-173023039D01*
X579376771Y-173131141D01*
X579354837Y-173225131D01*
X579337091Y-173300822D01*
X579332199Y-173321581D01*
X579312457Y-173405628D01*
X579298050Y-173468693D01*
X579288581Y-173513644D01*
X579283652Y-173543348D01*
X579282865Y-173560672D01*
X578643227Y-173560672D01*
X578643227Y-171288424D01*
X578643227Y-168614740D01*
X580086808Y-168614740D01*
X580404443Y-168824690D01*
X580505742Y-168891394D01*
X580624113Y-168968907D01*
X580755929Y-169054881D01*
X580897559Y-169146964D01*
X581045378Y-169242809D01*
X581195755Y-169340063D01*
X581345063Y-169436379D01*
X581489675Y-169529405D01*
X581625960Y-169616792D01*
X581736399Y-169687338D01*
X581916727Y-169802279D01*
X582116602Y-169804164D01*
X582164779Y-169804541D01*
X582234692Y-169804978D01*
X582323549Y-169805462D01*
X582428556Y-169805980D01*
X582546919Y-169806520D01*
X582675848Y-169807069D01*
X582812547Y-169807614D01*
X582954224Y-169808143D01*
X583098087Y-169808642D01*
X583107543Y-169808674D01*
X583898610Y-169811299D01*
X584102323Y-170065410D01*
X584222285Y-170214954D01*
X584328090Y-170346636D01*
X584420834Y-170461803D01*
X584501611Y-170561804D01*
X584571517Y-170647987D01*
X584631647Y-170721699D01*
X584683096Y-170784290D01*
X584726960Y-170837106D01*
X584764334Y-170881497D01*
X584784499Y-170905115D01*
X584887192Y-171024654D01*
X583071414Y-171027761D01*
X581255636Y-171030867D01*
X581448779Y-171258246D01*
X581544397Y-171370393D01*
X581653895Y-171498090D01*
X581774856Y-171638556D01*
X581904859Y-171789013D01*
X582041484Y-171946679D01*
X582182313Y-172108776D01*
X582324926Y-172272524D01*
X582466904Y-172435142D01*
X582605827Y-172593851D01*
X582739275Y-172745871D01*
X582864830Y-172888423D01*
X582980072Y-173018725D01*
X583028188Y-173072924D01*
X583115091Y-173170749D01*
X583205141Y-173272244D01*
X583296705Y-173375558D01*
X583388147Y-173478838D01*
X583477834Y-173580234D01*
X583564131Y-173677894D01*
X583645403Y-173769967D01*
X583720016Y-173854600D01*
X583786336Y-173929943D01*
X583842728Y-173994144D01*
X583887558Y-174045351D01*
X583919192Y-174081714D01*
X583934917Y-174100085D01*
X583968246Y-174139945D01*
X584936892Y-174139945D01*
X585905539Y-174139945D01*
X585809655Y-174026498D01*
X585772242Y-173982727D01*
X585722555Y-173925324D01*
X585664662Y-173858949D01*
X585602634Y-173788263D01*
X585540537Y-173717926D01*
X585523239Y-173698419D01*
X585364625Y-173519343D01*
X585194041Y-173325973D01*
X585105910Y-173225721D01*
X586124404Y-173225721D01*
X586126750Y-173262634D01*
X586132434Y-173293971D01*
X586141166Y-173321546D01*
X586143684Y-173327809D01*
X586183150Y-173391837D01*
X586242371Y-173446443D01*
X586317356Y-173488361D01*
X586357664Y-173502981D01*
X586373985Y-173504293D01*
X586413149Y-173505570D01*
X586473473Y-173506800D01*
X586553271Y-173507968D01*
X586650859Y-173509060D01*
X586764550Y-173510063D01*
X586892660Y-173510963D01*
X587033504Y-173511746D01*
X587185396Y-173512399D01*
X587346653Y-173512907D01*
X587515588Y-173513258D01*
X587631413Y-173513396D01*
X587836373Y-173513535D01*
X588018263Y-173513572D01*
X588178543Y-173513486D01*
X588318671Y-173513257D01*
X588440109Y-173512864D01*
X588544313Y-173512288D01*
X588632745Y-173511509D01*
X588706864Y-173510506D01*
X588768128Y-173509259D01*
X588817997Y-173507749D01*
X588857931Y-173505954D01*
X588889389Y-173503854D01*
X588913829Y-173501431D01*
X588932713Y-173498662D01*
X588947498Y-173495529D01*
X588948796Y-173495198D01*
X589049503Y-173460468D01*
X589150707Y-173409977D01*
X589246119Y-173347813D01*
X589329448Y-173278063D01*
X589393211Y-173206443D01*
X589443827Y-173122123D01*
X589478086Y-173031658D01*
X589485082Y-173006159D01*
X589497532Y-172958562D01*
X589515004Y-172890582D01*
X589537067Y-172803934D01*
X589563289Y-172700331D01*
X589593240Y-172581490D01*
X589626487Y-172449124D01*
X589662599Y-172304948D01*
X589701145Y-172150677D01*
X589741693Y-171988026D01*
X589783811Y-171818710D01*
X589821071Y-171668627D01*
X589865821Y-171488361D01*
X589910475Y-171308773D01*
X589954487Y-171132048D01*
X589997310Y-170960371D01*
X590038395Y-170795927D01*
X590077196Y-170640900D01*
X590113167Y-170497476D01*
X590145758Y-170367840D01*
X590174424Y-170254176D01*
X590198618Y-170158670D01*
X590217791Y-170083507D01*
X590226498Y-170049699D01*
X590250157Y-169956417D01*
X590271547Y-169868398D01*
X590289881Y-169789166D01*
X590304374Y-169722250D01*
X590314239Y-169671175D01*
X590318690Y-169639469D01*
X590318865Y-169635375D01*
X590310387Y-169563286D01*
X590282701Y-169503744D01*
X590241184Y-169458067D01*
X590228001Y-169446299D01*
X590215816Y-169435787D01*
X590203243Y-169426465D01*
X590188897Y-169418264D01*
X590171391Y-169411116D01*
X590149342Y-169404955D01*
X590121362Y-169399713D01*
X590086066Y-169395322D01*
X590042069Y-169391715D01*
X589987985Y-169388824D01*
X589922428Y-169386582D01*
X589844013Y-169384921D01*
X589751354Y-169383774D01*
X589643065Y-169383073D01*
X589517761Y-169382750D01*
X589374057Y-169382739D01*
X589210566Y-169382971D01*
X589025903Y-169383379D01*
X588818683Y-169383896D01*
X588723928Y-169384131D01*
X587381759Y-169387410D01*
X587293257Y-169419764D01*
X587203264Y-169461169D01*
X587115568Y-169517070D01*
X587035636Y-169582951D01*
X586968932Y-169654297D01*
X586920924Y-169726594D01*
X586920280Y-169727847D01*
X586907410Y-169760326D01*
X586892633Y-169808811D01*
X586878319Y-169865155D01*
X586872139Y-169893419D01*
X586861589Y-169943654D01*
X586846990Y-170011684D01*
X586829677Y-170091370D01*
X586810981Y-170176574D01*
X586792238Y-170261161D01*
X586791917Y-170262601D01*
X586775506Y-170338072D01*
X586761554Y-170405802D01*
X586750776Y-170462011D01*
X586743887Y-170502921D01*
X586741603Y-170524754D01*
X586741879Y-170526917D01*
X586750765Y-170539270D01*
X586773623Y-170568151D01*
X586808608Y-170611340D01*
X586853877Y-170666614D01*
X586907585Y-170731753D01*
X586967889Y-170804536D01*
X587032943Y-170882743D01*
X587100903Y-170964151D01*
X587169926Y-171046540D01*
X587238167Y-171127690D01*
X587303782Y-171205378D01*
X587364926Y-171277384D01*
X587369109Y-171282292D01*
X587410116Y-171330679D01*
X587447754Y-171375593D01*
X587477778Y-171411939D01*
X587495613Y-171434187D01*
X587513427Y-171455954D01*
X587523175Y-171465137D01*
X587523722Y-171464849D01*
X587526888Y-171452421D01*
X587535643Y-171418467D01*
X587549412Y-171365203D01*
X587567622Y-171294846D01*
X587589698Y-171209613D01*
X587615067Y-171111720D01*
X587643155Y-171003383D01*
X587673387Y-170886819D01*
X587686228Y-170837320D01*
X587847814Y-170214510D01*
X588488639Y-170211825D01*
X588631706Y-170211290D01*
X588752137Y-170211018D01*
X588851822Y-170211053D01*
X588932653Y-170211443D01*
X588996522Y-170212235D01*
X589045319Y-170213474D01*
X589080938Y-170215208D01*
X589105269Y-170217483D01*
X589120203Y-170220345D01*
X589127632Y-170223841D01*
X589129465Y-170227592D01*
X589126598Y-170243133D01*
X589118409Y-170279884D01*
X589105516Y-170335254D01*
X589088537Y-170406655D01*
X589068091Y-170491497D01*
X589044794Y-170587190D01*
X589019266Y-170691145D01*
X589006528Y-170742706D01*
X588983751Y-170834734D01*
X588961652Y-170924060D01*
X588939714Y-171012770D01*
X588917423Y-171102951D01*
X588894263Y-171196691D01*
X588869719Y-171296076D01*
X588843277Y-171403193D01*
X588814421Y-171520129D01*
X588782636Y-171648971D01*
X588747407Y-171791805D01*
X588708219Y-171950720D01*
X588664556Y-172127802D01*
X588615905Y-172325137D01*
X588578197Y-172478091D01*
X588532844Y-172662060D01*
X587879787Y-172665234D01*
X587736523Y-172665896D01*
X587615877Y-172666336D01*
X587515940Y-172666499D01*
X587434801Y-172666333D01*
X587370550Y-172665781D01*
X587321276Y-172664791D01*
X587285070Y-172663307D01*
X587260022Y-172661275D01*
X587244220Y-172658641D01*
X587235755Y-172655351D01*
X587232717Y-172651350D01*
X587233119Y-172646837D01*
X587237698Y-172629759D01*
X587247493Y-172592112D01*
X587261680Y-172537101D01*
X587279436Y-172467930D01*
X587299937Y-172387804D01*
X587322358Y-172299927D01*
X587327394Y-172280160D01*
X587415279Y-171935054D01*
X587239079Y-171704578D01*
X587179811Y-171627526D01*
X587109971Y-171537497D01*
X587034358Y-171440631D01*
X586957771Y-171343065D01*
X586885008Y-171250938D01*
X586848345Y-171204793D01*
X586633810Y-170935485D01*
X586576954Y-171173278D01*
X586556991Y-171257294D01*
X586533317Y-171357771D01*
X586507677Y-171467253D01*
X586481814Y-171578286D01*
X586457473Y-171683414D01*
X586449578Y-171717685D01*
X586425158Y-171823034D01*
X586396911Y-171943531D01*
X586366888Y-172070511D01*
X586337142Y-172195308D01*
X586309724Y-172309255D01*
X586301493Y-172343180D01*
X586260709Y-172511931D01*
X586225880Y-172658775D01*
X586196716Y-172785527D01*
X586172925Y-172894002D01*
X586154218Y-172986014D01*
X586140303Y-173063377D01*
X586130890Y-173127907D01*
X586125687Y-173181416D01*
X586124404Y-173225721D01*
X585105910Y-173225721D01*
X585010227Y-173116878D01*
X584811921Y-172890624D01*
X584794360Y-172870558D01*
X584731459Y-172798800D01*
X584657579Y-172714708D01*
X584578016Y-172624298D01*
X584498068Y-172533588D01*
X584423032Y-172448595D01*
X584394890Y-172416768D01*
X584324920Y-172337542D01*
X584249282Y-172251662D01*
X584172888Y-172164725D01*
X584100656Y-172082327D01*
X584037498Y-172010064D01*
X584012505Y-171981374D01*
X583847125Y-171791273D01*
X584719125Y-171785118D01*
X584886584Y-171783917D01*
X585031343Y-171782807D01*
X585155234Y-171781724D01*
X585260086Y-171780608D01*
X585347729Y-171779395D01*
X585419994Y-171778025D01*
X585478709Y-171776434D01*
X585525706Y-171774560D01*
X585562815Y-171772343D01*
X585591864Y-171769718D01*
X585614685Y-171766625D01*
X585633107Y-171763002D01*
X585648960Y-171758785D01*
X585664075Y-171753914D01*
X585666850Y-171752966D01*
X585768361Y-171710805D01*
X585862489Y-171657687D01*
X585944863Y-171596803D01*
X586011108Y-171531348D01*
X586053694Y-171470493D01*
X586067908Y-171442105D01*
X586081694Y-171409070D01*
X586095884Y-171368512D01*
X586111313Y-171317558D01*
X586128815Y-171253336D01*
X586149222Y-171172969D01*
X586173370Y-171073586D01*
X586193705Y-170987941D01*
X586220881Y-170867566D01*
X586240565Y-170767942D01*
X586253097Y-170686577D01*
X586258819Y-170620977D01*
X586258069Y-170568648D01*
X586254547Y-170542003D01*
X586252176Y-170531660D01*
X586248294Y-170520138D01*
X586242021Y-170506209D01*
X586232481Y-170488649D01*
X586218796Y-170466232D01*
X586200090Y-170437730D01*
X586175485Y-170401917D01*
X586144103Y-170357569D01*
X586105068Y-170303458D01*
X586057501Y-170238358D01*
X586000527Y-170161044D01*
X585933267Y-170070289D01*
X585854844Y-169964867D01*
X585764381Y-169843551D01*
X585661001Y-169705117D01*
X585543826Y-169548337D01*
X585538130Y-169540718D01*
X585426814Y-169391851D01*
X585329156Y-169261378D01*
X585244150Y-169148031D01*
X585170789Y-169050541D01*
X585108068Y-168967639D01*
X585054979Y-168898056D01*
X585010518Y-168840524D01*
X584973677Y-168793773D01*
X584943450Y-168756536D01*
X584918832Y-168727543D01*
X584898815Y-168705525D01*
X584882394Y-168689214D01*
X584868562Y-168677342D01*
X584856313Y-168668638D01*
X584844641Y-168661834D01*
X584838615Y-168658702D01*
X584826408Y-168652543D01*
X584814405Y-168646897D01*
X584801545Y-168641744D01*
X584786763Y-168637063D01*
X584768998Y-168632833D01*
X584747185Y-168629034D01*
X584720263Y-168625646D01*
X584687166Y-168622647D01*
X584646834Y-168620018D01*
X584598202Y-168617737D01*
X584540207Y-168615784D01*
X584471786Y-168614139D01*
X584391877Y-168612782D01*
X584299415Y-168611690D01*
X584193339Y-168610845D01*
X584072584Y-168610225D01*
X583936088Y-168609810D01*
X583782787Y-168609579D01*
X583611619Y-168609512D01*
X583421520Y-168609588D01*
X583211428Y-168609787D01*
X582980279Y-168610088D01*
X582727009Y-168610471D01*
X582450557Y-168610914D01*
X582372912Y-168611040D01*
X580086808Y-168614740D01*
X578643227Y-168614740D01*
X578643227Y-167087797D01*
X584922705Y-167087797D01*
X591202184Y-167087797D01*
X591202184Y-171288424D01*
G37*
D13*
%TO.C,R1*%
X663425000Y-173725000D02*
X669965000Y-173725000D01*
X663425000Y-174055000D02*
X663425000Y-173725000D01*
X663425000Y-176135000D02*
X663425000Y-176465000D01*
X663425000Y-176465000D02*
X669965000Y-176465000D01*
X669965000Y-173725000D02*
X669965000Y-174055000D01*
X669965000Y-176465000D02*
X669965000Y-176135000D01*
%TO.C,D3*%
X651290000Y-141063200D02*
X651290000Y-137973200D01*
X645740000Y-139518200D02*
G75*
G02*
X651290000Y-137973370I2990000J0D01*
G01*
X651290000Y-141063030D02*
G75*
G02*
X645740000Y-139518200I-2560000J1544830D01*
G01*
X651230000Y-139518200D02*
G75*
G02*
X646230000Y-139518200I-2500000J0D01*
G01*
X646230000Y-139518200D02*
G75*
G02*
X651230000Y-139518200I2500000J0D01*
G01*
%TO.C,D6*%
X651290000Y-87647000D02*
X651290000Y-84557000D01*
X645740000Y-86102000D02*
G75*
G02*
X651290000Y-84557170I2990000J0D01*
G01*
X651290000Y-87646830D02*
G75*
G02*
X645740000Y-86102000I-2560000J1544830D01*
G01*
X651230000Y-86102000D02*
G75*
G02*
X646230000Y-86102000I-2500000J0D01*
G01*
X646230000Y-86102000D02*
G75*
G02*
X651230000Y-86102000I2500000J0D01*
G01*
%TO.C,U1*%
X697240000Y-169162500D02*
X697240000Y-188382500D01*
X697240000Y-169162500D02*
X709960000Y-169162500D01*
X697240000Y-188382500D02*
X709960000Y-188382500D01*
X697720000Y-188732500D02*
X699330000Y-188732500D01*
X701679400Y-173209300D02*
X701679400Y-178568700D01*
X701679400Y-178746500D02*
X701679400Y-183648700D01*
X701857200Y-173183900D02*
X705540200Y-173183900D01*
X701857200Y-178644900D02*
X705540200Y-178644900D01*
X701857200Y-183648700D02*
X705540200Y-183648700D01*
X705718000Y-173209300D02*
X705718000Y-178568700D01*
X705718000Y-178746500D02*
X705718000Y-183648700D01*
X709960000Y-169162500D02*
X709960000Y-188382500D01*
X707062467Y-183834967D02*
G75*
G02*
X706117533Y-183834967I-472467J0D01*
G01*
X706117533Y-183834967D02*
G75*
G02*
X707062467Y-183834967I472467J0D01*
G01*
%TO.C,R24*%
X691630000Y-38159215D02*
X691960000Y-38159215D01*
X691630000Y-44699215D02*
X691630000Y-38159215D01*
X691960000Y-44699215D02*
X691630000Y-44699215D01*
X694040000Y-44699215D02*
X694370000Y-44699215D01*
X694370000Y-38159215D02*
X694040000Y-38159215D01*
X694370000Y-44699215D02*
X694370000Y-38159215D01*
%TO.C,D1*%
X651290000Y-176640000D02*
X651290000Y-173550000D01*
X645740000Y-175095000D02*
G75*
G02*
X651290000Y-173550170I2990000J0D01*
G01*
X651290000Y-176639830D02*
G75*
G02*
X645740000Y-175095000I-2560000J1544830D01*
G01*
X651230000Y-175095000D02*
G75*
G02*
X646230000Y-175095000I-2500000J0D01*
G01*
X646230000Y-175095000D02*
G75*
G02*
X651230000Y-175095000I2500000J0D01*
G01*
%TO.C,R12*%
X689830000Y-145320000D02*
X689830000Y-151860000D01*
X689830000Y-151860000D02*
X690160000Y-151860000D01*
X690160000Y-145320000D02*
X689830000Y-145320000D01*
X692240000Y-145320000D02*
X692570000Y-145320000D01*
X692570000Y-145320000D02*
X692570000Y-151860000D01*
X692570000Y-151860000D02*
X692240000Y-151860000D01*
%TO.C,U4*%
X691540000Y-61850000D02*
X691540000Y-67150000D01*
X691540000Y-67150000D02*
X711980000Y-67150000D01*
X711980000Y-61850000D02*
X691540000Y-61850000D01*
X711980000Y-63500000D02*
X711980000Y-61850000D01*
X711980000Y-67150000D02*
X711980000Y-65500000D01*
X711980000Y-65500000D02*
G75*
G02*
X711980000Y-63500000I0J1000000D01*
G01*
%TO.C,D7*%
X651290000Y-69841600D02*
X651290000Y-66751600D01*
X645740000Y-68296600D02*
G75*
G02*
X651290000Y-66751770I2990000J0D01*
G01*
X651290000Y-69841430D02*
G75*
G02*
X645740000Y-68296600I-2560000J1544830D01*
G01*
X651230000Y-68296600D02*
G75*
G02*
X646230000Y-68296600I-2500000J0D01*
G01*
X646230000Y-68296600D02*
G75*
G02*
X651230000Y-68296600I2500000J0D01*
G01*
%TO.C,U2*%
X697240000Y-20925000D02*
X697240000Y-1705000D01*
X701482000Y-11341000D02*
X701482000Y-6438800D01*
X701482000Y-16878200D02*
X701482000Y-11518800D01*
X705342800Y-6438800D02*
X701659800Y-6438800D01*
X705342800Y-11442600D02*
X701659800Y-11442600D01*
X705342800Y-16903600D02*
X701659800Y-16903600D01*
X705520600Y-11341000D02*
X705520600Y-6438800D01*
X705520600Y-16878200D02*
X705520600Y-11518800D01*
X709480000Y-1355000D02*
X707870000Y-1355000D01*
X709960000Y-1705000D02*
X697240000Y-1705000D01*
X709960000Y-20925000D02*
X697240000Y-20925000D01*
X709960000Y-20925000D02*
X709960000Y-1705000D01*
X701082467Y-6252533D02*
G75*
G02*
X700137533Y-6252533I-472467J0D01*
G01*
X700137533Y-6252533D02*
G75*
G02*
X701082467Y-6252533I472467J0D01*
G01*
%TO.C,R18*%
X686030000Y-38159215D02*
X686360000Y-38159215D01*
X686030000Y-44699215D02*
X686030000Y-38159215D01*
X686360000Y-44699215D02*
X686030000Y-44699215D01*
X688440000Y-44699215D02*
X688770000Y-44699215D01*
X688770000Y-38159215D02*
X688440000Y-38159215D01*
X688770000Y-44699215D02*
X688770000Y-38159215D01*
%TO.C,R5*%
X663425000Y-102537400D02*
X669965000Y-102537400D01*
X663425000Y-102867400D02*
X663425000Y-102537400D01*
X663425000Y-104947400D02*
X663425000Y-105277400D01*
X663425000Y-105277400D02*
X669965000Y-105277400D01*
X669965000Y-102537400D02*
X669965000Y-102867400D01*
X669965000Y-105277400D02*
X669965000Y-104947400D01*
%TO.C,R15*%
X706030000Y-145320000D02*
X706030000Y-151860000D01*
X706030000Y-151860000D02*
X706360000Y-151860000D01*
X706360000Y-145320000D02*
X706030000Y-145320000D01*
X708440000Y-145320000D02*
X708770000Y-145320000D01*
X708770000Y-145320000D02*
X708770000Y-151860000D01*
X708770000Y-151860000D02*
X708440000Y-151860000D01*
%TO.C,R14*%
X700630000Y-145320000D02*
X700630000Y-151860000D01*
X700630000Y-151860000D02*
X700960000Y-151860000D01*
X700960000Y-145320000D02*
X700630000Y-145320000D01*
X703040000Y-145320000D02*
X703370000Y-145320000D01*
X703370000Y-145320000D02*
X703370000Y-151860000D01*
X703370000Y-151860000D02*
X703040000Y-151860000D01*
%TO.C,D10*%
X651290000Y-16425400D02*
X651290000Y-13335400D01*
X645740000Y-14880400D02*
G75*
G02*
X651290000Y-13335570I2990000J0D01*
G01*
X651290000Y-16425230D02*
G75*
G02*
X645740000Y-14880400I-2560000J1544830D01*
G01*
X651230000Y-14880400D02*
G75*
G02*
X646230000Y-14880400I-2500000J0D01*
G01*
X646230000Y-14880400D02*
G75*
G02*
X651230000Y-14880400I2500000J0D01*
G01*
%TO.C,D9*%
X651290000Y-34230800D02*
X651290000Y-31140800D01*
X645740000Y-32685800D02*
G75*
G02*
X651290000Y-31140970I2990000J0D01*
G01*
X651290000Y-34230630D02*
G75*
G02*
X645740000Y-32685800I-2560000J1544830D01*
G01*
X651230000Y-32685800D02*
G75*
G02*
X646230000Y-32685800I-2500000J0D01*
G01*
X646230000Y-32685800D02*
G75*
G02*
X651230000Y-32685800I2500000J0D01*
G01*
%TO.C,D8*%
X651290000Y-52036200D02*
X651290000Y-48946200D01*
X645740000Y-50491200D02*
G75*
G02*
X651290000Y-48946370I2990000J0D01*
G01*
X651290000Y-52036030D02*
G75*
G02*
X645740000Y-50491200I-2560000J1544830D01*
G01*
X651230000Y-50491200D02*
G75*
G02*
X646230000Y-50491200I-2500000J0D01*
G01*
X646230000Y-50491200D02*
G75*
G02*
X651230000Y-50491200I2500000J0D01*
G01*
%TO.C,SW1*%
X583830000Y-137525000D02*
X583830000Y-136525000D01*
X584080000Y-146215000D02*
X584080000Y-136775000D01*
X584830000Y-136525000D02*
X583830000Y-136525000D01*
X587400000Y-139795000D02*
X587400000Y-143095000D01*
X590700000Y-139795000D02*
X587400000Y-139795000D01*
X590700000Y-139795000D02*
X590700000Y-143095000D01*
X590700000Y-143095000D02*
X587400000Y-143095000D01*
X594120000Y-136775000D02*
X584080000Y-136775000D01*
X594120000Y-146215000D02*
X584080000Y-146215000D01*
X594120000Y-146215000D02*
X594120000Y-136775000D01*
%TO.C,R21*%
X707430000Y-38159215D02*
X707760000Y-38159215D01*
X707430000Y-44699215D02*
X707430000Y-38159215D01*
X707760000Y-44699215D02*
X707430000Y-44699215D01*
X709840000Y-44699215D02*
X710170000Y-44699215D01*
X710170000Y-38159215D02*
X709840000Y-38159215D01*
X710170000Y-44699215D02*
X710170000Y-38159215D01*
%TO.C,R11*%
X684430000Y-145320000D02*
X684430000Y-151860000D01*
X684430000Y-151860000D02*
X684760000Y-151860000D01*
X684760000Y-145320000D02*
X684430000Y-145320000D01*
X686840000Y-145320000D02*
X687170000Y-145320000D01*
X687170000Y-145320000D02*
X687170000Y-151860000D01*
X687170000Y-151860000D02*
X686840000Y-151860000D01*
%TO.C,C2*%
X710445225Y-98612500D02*
X710945225Y-98612500D01*
X710695225Y-98362500D02*
X710695225Y-98862500D01*
X713250000Y-97507500D02*
X713250000Y-102667500D01*
X713290000Y-97507500D02*
X713290000Y-102667500D01*
X713330000Y-97508500D02*
X713330000Y-102666500D01*
X713370000Y-97510500D02*
X713370000Y-102664500D01*
X713410000Y-97512500D02*
X713410000Y-102662500D01*
X713450000Y-97515500D02*
X713450000Y-102659500D01*
X713490000Y-97518500D02*
X713490000Y-99047500D01*
X713490000Y-101127500D02*
X713490000Y-102656500D01*
X713530000Y-97522500D02*
X713530000Y-99047500D01*
X713530000Y-101127500D02*
X713530000Y-102652500D01*
X713570000Y-97527500D02*
X713570000Y-99047500D01*
X713570000Y-101127500D02*
X713570000Y-102647500D01*
X713610000Y-97532500D02*
X713610000Y-99047500D01*
X713610000Y-101127500D02*
X713610000Y-102642500D01*
X713650000Y-97538500D02*
X713650000Y-99047500D01*
X713650000Y-101127500D02*
X713650000Y-102636500D01*
X713690000Y-97544500D02*
X713690000Y-99047500D01*
X713690000Y-101127500D02*
X713690000Y-102630500D01*
X713730000Y-97551500D02*
X713730000Y-99047500D01*
X713730000Y-101127500D02*
X713730000Y-102623500D01*
X713770000Y-97559500D02*
X713770000Y-99047500D01*
X713770000Y-101127500D02*
X713770000Y-102615500D01*
X713810000Y-97568500D02*
X713810000Y-99047500D01*
X713810000Y-101127500D02*
X713810000Y-102606500D01*
X713850000Y-97577500D02*
X713850000Y-99047500D01*
X713850000Y-101127500D02*
X713850000Y-102597500D01*
X713890000Y-97586500D02*
X713890000Y-99047500D01*
X713890000Y-101127500D02*
X713890000Y-102588500D01*
X713930000Y-97597500D02*
X713930000Y-99047500D01*
X713930000Y-101127500D02*
X713930000Y-102577500D01*
X713970000Y-97608500D02*
X713970000Y-99047500D01*
X713970000Y-101127500D02*
X713970000Y-102566500D01*
X714010000Y-97620500D02*
X714010000Y-99047500D01*
X714010000Y-101127500D02*
X714010000Y-102554500D01*
X714050000Y-97632500D02*
X714050000Y-99047500D01*
X714050000Y-101127500D02*
X714050000Y-102542500D01*
X714090000Y-97645500D02*
X714090000Y-99047500D01*
X714090000Y-101127500D02*
X714090000Y-102529500D01*
X714130000Y-97659500D02*
X714130000Y-99047500D01*
X714130000Y-101127500D02*
X714130000Y-102515500D01*
X714170000Y-97674500D02*
X714170000Y-99047500D01*
X714170000Y-101127500D02*
X714170000Y-102500500D01*
X714210000Y-97689500D02*
X714210000Y-99047500D01*
X714210000Y-101127500D02*
X714210000Y-102485500D01*
X714250000Y-97705500D02*
X714250000Y-99047500D01*
X714250000Y-101127500D02*
X714250000Y-102469500D01*
X714290000Y-97722500D02*
X714290000Y-99047500D01*
X714290000Y-101127500D02*
X714290000Y-102452500D01*
X714330000Y-97740500D02*
X714330000Y-99047500D01*
X714330000Y-101127500D02*
X714330000Y-102434500D01*
X714370000Y-97758500D02*
X714370000Y-99047500D01*
X714370000Y-101127500D02*
X714370000Y-102416500D01*
X714410000Y-97778500D02*
X714410000Y-99047500D01*
X714410000Y-101127500D02*
X714410000Y-102396500D01*
X714450000Y-97798500D02*
X714450000Y-99047500D01*
X714450000Y-101127500D02*
X714450000Y-102376500D01*
X714490000Y-97819500D02*
X714490000Y-99047500D01*
X714490000Y-101127500D02*
X714490000Y-102355500D01*
X714530000Y-97841500D02*
X714530000Y-99047500D01*
X714530000Y-101127500D02*
X714530000Y-102333500D01*
X714570000Y-97864500D02*
X714570000Y-99047500D01*
X714570000Y-101127500D02*
X714570000Y-102310500D01*
X714610000Y-97888500D02*
X714610000Y-99047500D01*
X714610000Y-101127500D02*
X714610000Y-102286500D01*
X714650000Y-97912500D02*
X714650000Y-99047500D01*
X714650000Y-101127500D02*
X714650000Y-102262500D01*
X714690000Y-97938500D02*
X714690000Y-99047500D01*
X714690000Y-101127500D02*
X714690000Y-102236500D01*
X714730000Y-97965500D02*
X714730000Y-99047500D01*
X714730000Y-101127500D02*
X714730000Y-102209500D01*
X714770000Y-97993500D02*
X714770000Y-99047500D01*
X714770000Y-101127500D02*
X714770000Y-102181500D01*
X714810000Y-98022500D02*
X714810000Y-99047500D01*
X714810000Y-101127500D02*
X714810000Y-102152500D01*
X714850000Y-98052500D02*
X714850000Y-99047500D01*
X714850000Y-101127500D02*
X714850000Y-102122500D01*
X714890000Y-98084500D02*
X714890000Y-99047500D01*
X714890000Y-101127500D02*
X714890000Y-102090500D01*
X714930000Y-98117500D02*
X714930000Y-99047500D01*
X714930000Y-101127500D02*
X714930000Y-102057500D01*
X714970000Y-98151500D02*
X714970000Y-99047500D01*
X714970000Y-101127500D02*
X714970000Y-102023500D01*
X715010000Y-98186500D02*
X715010000Y-99047500D01*
X715010000Y-101127500D02*
X715010000Y-101988500D01*
X715050000Y-98223500D02*
X715050000Y-99047500D01*
X715050000Y-101127500D02*
X715050000Y-101951500D01*
X715090000Y-98262500D02*
X715090000Y-99047500D01*
X715090000Y-101127500D02*
X715090000Y-101912500D01*
X715130000Y-98302500D02*
X715130000Y-99047500D01*
X715130000Y-101127500D02*
X715130000Y-101872500D01*
X715170000Y-98344500D02*
X715170000Y-99047500D01*
X715170000Y-101127500D02*
X715170000Y-101830500D01*
X715210000Y-98388500D02*
X715210000Y-99047500D01*
X715210000Y-101127500D02*
X715210000Y-101786500D01*
X715250000Y-98435500D02*
X715250000Y-99047500D01*
X715250000Y-101127500D02*
X715250000Y-101739500D01*
X715290000Y-98483500D02*
X715290000Y-99047500D01*
X715290000Y-101127500D02*
X715290000Y-101691500D01*
X715330000Y-98534500D02*
X715330000Y-99047500D01*
X715330000Y-101127500D02*
X715330000Y-101640500D01*
X715370000Y-98588500D02*
X715370000Y-99047500D01*
X715370000Y-101127500D02*
X715370000Y-101586500D01*
X715410000Y-98644500D02*
X715410000Y-99047500D01*
X715410000Y-101127500D02*
X715410000Y-101530500D01*
X715450000Y-98704500D02*
X715450000Y-99047500D01*
X715450000Y-101127500D02*
X715450000Y-101470500D01*
X715490000Y-98768500D02*
X715490000Y-99047500D01*
X715490000Y-101127500D02*
X715490000Y-101406500D01*
X715530000Y-98836500D02*
X715530000Y-99047500D01*
X715530000Y-101127500D02*
X715530000Y-101338500D01*
X715570000Y-98910500D02*
X715570000Y-101264500D01*
X715610000Y-98989500D02*
X715610000Y-101185500D01*
X715650000Y-99076500D02*
X715650000Y-101098500D01*
X715690000Y-99173500D02*
X715690000Y-101001500D01*
X715730000Y-99282500D02*
X715730000Y-100892500D01*
X715770000Y-99410500D02*
X715770000Y-100764500D01*
X715810000Y-99570500D02*
X715810000Y-100604500D01*
X715850000Y-99804500D02*
X715850000Y-100370500D01*
X715870000Y-100087500D02*
G75*
G02*
X710630000Y-100087500I-2620000J0D01*
G01*
X710630000Y-100087500D02*
G75*
G02*
X715870000Y-100087500I2620000J0D01*
G01*
%TO.C,R10*%
X663425000Y-13510400D02*
X669965000Y-13510400D01*
X663425000Y-13840400D02*
X663425000Y-13510400D01*
X663425000Y-15920400D02*
X663425000Y-16250400D01*
X663425000Y-16250400D02*
X669965000Y-16250400D01*
X669965000Y-13510400D02*
X669965000Y-13840400D01*
X669965000Y-16250400D02*
X669965000Y-15920400D01*
%TO.C,J1*%
X609710000Y-164825000D02*
X609710000Y-177645000D01*
X609710000Y-164825000D02*
X618340000Y-164825000D01*
X609710000Y-164945000D02*
X618340000Y-164945000D01*
X609710000Y-165063095D02*
X618340000Y-165063095D01*
X609710000Y-165181190D02*
X618340000Y-165181190D01*
X609710000Y-165299285D02*
X618340000Y-165299285D01*
X609710000Y-165417380D02*
X618340000Y-165417380D01*
X609710000Y-165535475D02*
X618340000Y-165535475D01*
X609710000Y-165653570D02*
X618340000Y-165653570D01*
X609710000Y-165771665D02*
X618340000Y-165771665D01*
X609710000Y-165889760D02*
X618340000Y-165889760D01*
X609710000Y-166007855D02*
X618340000Y-166007855D01*
X609710000Y-166125950D02*
X618340000Y-166125950D01*
X609710000Y-166244045D02*
X618340000Y-166244045D01*
X609710000Y-166362140D02*
X618340000Y-166362140D01*
X609710000Y-166480235D02*
X618340000Y-166480235D01*
X609710000Y-166598330D02*
X618340000Y-166598330D01*
X609710000Y-166716425D02*
X618340000Y-166716425D01*
X609710000Y-166834520D02*
X618340000Y-166834520D01*
X609710000Y-166952615D02*
X618340000Y-166952615D01*
X609710000Y-167070710D02*
X618340000Y-167070710D01*
X609710000Y-167188805D02*
X618340000Y-167188805D01*
X609710000Y-167306900D02*
X618340000Y-167306900D01*
X609710000Y-167425000D02*
X618340000Y-167425000D01*
X609710000Y-169965000D02*
X618340000Y-169965000D01*
X609710000Y-172505000D02*
X618340000Y-172505000D01*
X609710000Y-175045000D02*
X618340000Y-175045000D01*
X609710000Y-177645000D02*
X618340000Y-177645000D01*
X618340000Y-164825000D02*
X618340000Y-177645000D01*
X618340000Y-165795000D02*
X618690000Y-165795000D01*
X618340000Y-166515000D02*
X618690000Y-166515000D01*
X618340000Y-168335000D02*
X618750000Y-168335000D01*
X618340000Y-169055000D02*
X618750000Y-169055000D01*
X618340000Y-170875000D02*
X618750000Y-170875000D01*
X618340000Y-171595000D02*
X618750000Y-171595000D01*
X618340000Y-173415000D02*
X618750000Y-173415000D01*
X618340000Y-174135000D02*
X618750000Y-174135000D01*
X618340000Y-175955000D02*
X618750000Y-175955000D01*
X618340000Y-176675000D02*
X618750000Y-176675000D01*
X619800000Y-164825000D02*
X620910000Y-164825000D01*
X620910000Y-164825000D02*
X620910000Y-166155000D01*
%TO.C,C1*%
X710445225Y-84820000D02*
X710945225Y-84820000D01*
X710695225Y-84570000D02*
X710695225Y-85070000D01*
X713250000Y-83715000D02*
X713250000Y-88875000D01*
X713290000Y-83715000D02*
X713290000Y-88875000D01*
X713330000Y-83716000D02*
X713330000Y-88874000D01*
X713370000Y-83718000D02*
X713370000Y-88872000D01*
X713410000Y-83720000D02*
X713410000Y-88870000D01*
X713450000Y-83723000D02*
X713450000Y-88867000D01*
X713490000Y-83726000D02*
X713490000Y-85255000D01*
X713490000Y-87335000D02*
X713490000Y-88864000D01*
X713530000Y-83730000D02*
X713530000Y-85255000D01*
X713530000Y-87335000D02*
X713530000Y-88860000D01*
X713570000Y-83735000D02*
X713570000Y-85255000D01*
X713570000Y-87335000D02*
X713570000Y-88855000D01*
X713610000Y-83740000D02*
X713610000Y-85255000D01*
X713610000Y-87335000D02*
X713610000Y-88850000D01*
X713650000Y-83746000D02*
X713650000Y-85255000D01*
X713650000Y-87335000D02*
X713650000Y-88844000D01*
X713690000Y-83752000D02*
X713690000Y-85255000D01*
X713690000Y-87335000D02*
X713690000Y-88838000D01*
X713730000Y-83759000D02*
X713730000Y-85255000D01*
X713730000Y-87335000D02*
X713730000Y-88831000D01*
X713770000Y-83767000D02*
X713770000Y-85255000D01*
X713770000Y-87335000D02*
X713770000Y-88823000D01*
X713810000Y-83776000D02*
X713810000Y-85255000D01*
X713810000Y-87335000D02*
X713810000Y-88814000D01*
X713850000Y-83785000D02*
X713850000Y-85255000D01*
X713850000Y-87335000D02*
X713850000Y-88805000D01*
X713890000Y-83794000D02*
X713890000Y-85255000D01*
X713890000Y-87335000D02*
X713890000Y-88796000D01*
X713930000Y-83805000D02*
X713930000Y-85255000D01*
X713930000Y-87335000D02*
X713930000Y-88785000D01*
X713970000Y-83816000D02*
X713970000Y-85255000D01*
X713970000Y-87335000D02*
X713970000Y-88774000D01*
X714010000Y-83828000D02*
X714010000Y-85255000D01*
X714010000Y-87335000D02*
X714010000Y-88762000D01*
X714050000Y-83840000D02*
X714050000Y-85255000D01*
X714050000Y-87335000D02*
X714050000Y-88750000D01*
X714090000Y-83853000D02*
X714090000Y-85255000D01*
X714090000Y-87335000D02*
X714090000Y-88737000D01*
X714130000Y-83867000D02*
X714130000Y-85255000D01*
X714130000Y-87335000D02*
X714130000Y-88723000D01*
X714170000Y-83882000D02*
X714170000Y-85255000D01*
X714170000Y-87335000D02*
X714170000Y-88708000D01*
X714210000Y-83897000D02*
X714210000Y-85255000D01*
X714210000Y-87335000D02*
X714210000Y-88693000D01*
X714250000Y-83913000D02*
X714250000Y-85255000D01*
X714250000Y-87335000D02*
X714250000Y-88677000D01*
X714290000Y-83930000D02*
X714290000Y-85255000D01*
X714290000Y-87335000D02*
X714290000Y-88660000D01*
X714330000Y-83948000D02*
X714330000Y-85255000D01*
X714330000Y-87335000D02*
X714330000Y-88642000D01*
X714370000Y-83966000D02*
X714370000Y-85255000D01*
X714370000Y-87335000D02*
X714370000Y-88624000D01*
X714410000Y-83986000D02*
X714410000Y-85255000D01*
X714410000Y-87335000D02*
X714410000Y-88604000D01*
X714450000Y-84006000D02*
X714450000Y-85255000D01*
X714450000Y-87335000D02*
X714450000Y-88584000D01*
X714490000Y-84027000D02*
X714490000Y-85255000D01*
X714490000Y-87335000D02*
X714490000Y-88563000D01*
X714530000Y-84049000D02*
X714530000Y-85255000D01*
X714530000Y-87335000D02*
X714530000Y-88541000D01*
X714570000Y-84072000D02*
X714570000Y-85255000D01*
X714570000Y-87335000D02*
X714570000Y-88518000D01*
X714610000Y-84096000D02*
X714610000Y-85255000D01*
X714610000Y-87335000D02*
X714610000Y-88494000D01*
X714650000Y-84120000D02*
X714650000Y-85255000D01*
X714650000Y-87335000D02*
X714650000Y-88470000D01*
X714690000Y-84146000D02*
X714690000Y-85255000D01*
X714690000Y-87335000D02*
X714690000Y-88444000D01*
X714730000Y-84173000D02*
X714730000Y-85255000D01*
X714730000Y-87335000D02*
X714730000Y-88417000D01*
X714770000Y-84201000D02*
X714770000Y-85255000D01*
X714770000Y-87335000D02*
X714770000Y-88389000D01*
X714810000Y-84230000D02*
X714810000Y-85255000D01*
X714810000Y-87335000D02*
X714810000Y-88360000D01*
X714850000Y-84260000D02*
X714850000Y-85255000D01*
X714850000Y-87335000D02*
X714850000Y-88330000D01*
X714890000Y-84292000D02*
X714890000Y-85255000D01*
X714890000Y-87335000D02*
X714890000Y-88298000D01*
X714930000Y-84325000D02*
X714930000Y-85255000D01*
X714930000Y-87335000D02*
X714930000Y-88265000D01*
X714970000Y-84359000D02*
X714970000Y-85255000D01*
X714970000Y-87335000D02*
X714970000Y-88231000D01*
X715010000Y-84394000D02*
X715010000Y-85255000D01*
X715010000Y-87335000D02*
X715010000Y-88196000D01*
X715050000Y-84431000D02*
X715050000Y-85255000D01*
X715050000Y-87335000D02*
X715050000Y-88159000D01*
X715090000Y-84470000D02*
X715090000Y-85255000D01*
X715090000Y-87335000D02*
X715090000Y-88120000D01*
X715130000Y-84510000D02*
X715130000Y-85255000D01*
X715130000Y-87335000D02*
X715130000Y-88080000D01*
X715170000Y-84552000D02*
X715170000Y-85255000D01*
X715170000Y-87335000D02*
X715170000Y-88038000D01*
X715210000Y-84596000D02*
X715210000Y-85255000D01*
X715210000Y-87335000D02*
X715210000Y-87994000D01*
X715250000Y-84643000D02*
X715250000Y-85255000D01*
X715250000Y-87335000D02*
X715250000Y-87947000D01*
X715290000Y-84691000D02*
X715290000Y-85255000D01*
X715290000Y-87335000D02*
X715290000Y-87899000D01*
X715330000Y-84742000D02*
X715330000Y-85255000D01*
X715330000Y-87335000D02*
X715330000Y-87848000D01*
X715370000Y-84796000D02*
X715370000Y-85255000D01*
X715370000Y-87335000D02*
X715370000Y-87794000D01*
X715410000Y-84852000D02*
X715410000Y-85255000D01*
X715410000Y-87335000D02*
X715410000Y-87738000D01*
X715450000Y-84912000D02*
X715450000Y-85255000D01*
X715450000Y-87335000D02*
X715450000Y-87678000D01*
X715490000Y-84976000D02*
X715490000Y-85255000D01*
X715490000Y-87335000D02*
X715490000Y-87614000D01*
X715530000Y-85044000D02*
X715530000Y-85255000D01*
X715530000Y-87335000D02*
X715530000Y-87546000D01*
X715570000Y-85118000D02*
X715570000Y-87472000D01*
X715610000Y-85197000D02*
X715610000Y-87393000D01*
X715650000Y-85284000D02*
X715650000Y-87306000D01*
X715690000Y-85381000D02*
X715690000Y-87209000D01*
X715730000Y-85490000D02*
X715730000Y-87100000D01*
X715770000Y-85618000D02*
X715770000Y-86972000D01*
X715810000Y-85778000D02*
X715810000Y-86812000D01*
X715850000Y-86012000D02*
X715850000Y-86578000D01*
X715870000Y-86295000D02*
G75*
G02*
X710630000Y-86295000I-2620000J0D01*
G01*
X710630000Y-86295000D02*
G75*
G02*
X715870000Y-86295000I2620000J0D01*
G01*
%TO.C,R13*%
X695430000Y-145320000D02*
X695430000Y-151860000D01*
X695430000Y-151860000D02*
X695760000Y-151860000D01*
X695760000Y-145320000D02*
X695430000Y-145320000D01*
X697840000Y-145320000D02*
X698170000Y-145320000D01*
X698170000Y-145320000D02*
X698170000Y-151860000D01*
X698170000Y-151860000D02*
X697840000Y-151860000D01*
%TO.C,R23*%
X697230000Y-38159215D02*
X697560000Y-38159215D01*
X697230000Y-44699215D02*
X697230000Y-38159215D01*
X697560000Y-44699215D02*
X697230000Y-44699215D01*
X699640000Y-44699215D02*
X699970000Y-44699215D01*
X699970000Y-38159215D02*
X699640000Y-38159215D01*
X699970000Y-44699215D02*
X699970000Y-38159215D01*
%TO.C,D2*%
X651290000Y-158868600D02*
X651290000Y-155778600D01*
X645740000Y-157323600D02*
G75*
G02*
X651290000Y-155778770I2990000J0D01*
G01*
X651290000Y-158868430D02*
G75*
G02*
X645740000Y-157323600I-2560000J1544830D01*
G01*
X651230000Y-157323600D02*
G75*
G02*
X646230000Y-157323600I-2500000J0D01*
G01*
X646230000Y-157323600D02*
G75*
G02*
X651230000Y-157323600I2500000J0D01*
G01*
%TO.C,R19*%
X717430000Y-38159215D02*
X717760000Y-38159215D01*
X717430000Y-44699215D02*
X717430000Y-38159215D01*
X717760000Y-44699215D02*
X717430000Y-44699215D01*
X719840000Y-44699215D02*
X720170000Y-44699215D01*
X720170000Y-38159215D02*
X719840000Y-38159215D01*
X720170000Y-44699215D02*
X720170000Y-38159215D01*
%TO.C,R2*%
X663425000Y-155953600D02*
X669965000Y-155953600D01*
X663425000Y-156283600D02*
X663425000Y-155953600D01*
X663425000Y-158363600D02*
X663425000Y-158693600D01*
X663425000Y-158693600D02*
X669965000Y-158693600D01*
X669965000Y-155953600D02*
X669965000Y-156283600D01*
X669965000Y-158693600D02*
X669965000Y-158363600D01*
%TO.C,D4*%
X651290000Y-123257800D02*
X651290000Y-120167800D01*
X645740000Y-121712800D02*
G75*
G02*
X651290000Y-120167970I2990000J0D01*
G01*
X651290000Y-123257630D02*
G75*
G02*
X645740000Y-121712800I-2560000J1544830D01*
G01*
X651230000Y-121712800D02*
G75*
G02*
X646230000Y-121712800I-2500000J0D01*
G01*
X646230000Y-121712800D02*
G75*
G02*
X651230000Y-121712800I2500000J0D01*
G01*
%TO.C,R7*%
X663425000Y-66926600D02*
X669965000Y-66926600D01*
X663425000Y-67256600D02*
X663425000Y-66926600D01*
X663425000Y-69336600D02*
X663425000Y-69666600D01*
X663425000Y-69666600D02*
X669965000Y-69666600D01*
X669965000Y-66926600D02*
X669965000Y-67256600D01*
X669965000Y-69666600D02*
X669965000Y-69336600D01*
%TO.C,R17*%
X717030000Y-145320000D02*
X717030000Y-151860000D01*
X717030000Y-151860000D02*
X717360000Y-151860000D01*
X717360000Y-145320000D02*
X717030000Y-145320000D01*
X719440000Y-145320000D02*
X719770000Y-145320000D01*
X719770000Y-145320000D02*
X719770000Y-151860000D01*
X719770000Y-151860000D02*
X719440000Y-151860000D01*
%TO.C,R20*%
X712430000Y-38159215D02*
X712760000Y-38159215D01*
X712430000Y-44699215D02*
X712430000Y-38159215D01*
X712760000Y-44699215D02*
X712430000Y-44699215D01*
X714840000Y-44699215D02*
X715170000Y-44699215D01*
X715170000Y-38159215D02*
X714840000Y-38159215D01*
X715170000Y-44699215D02*
X715170000Y-38159215D01*
%TO.C,R8*%
X663425000Y-49121200D02*
X669965000Y-49121200D01*
X663425000Y-49451200D02*
X663425000Y-49121200D01*
X663425000Y-51531200D02*
X663425000Y-51861200D01*
X663425000Y-51861200D02*
X669965000Y-51861200D01*
X669965000Y-49121200D02*
X669965000Y-49451200D01*
X669965000Y-51861200D02*
X669965000Y-51531200D01*
%TO.C,R6*%
X663425000Y-84732000D02*
X669965000Y-84732000D01*
X663425000Y-85062000D02*
X663425000Y-84732000D01*
X663425000Y-87142000D02*
X663425000Y-87472000D01*
X663425000Y-87472000D02*
X669965000Y-87472000D01*
X669965000Y-84732000D02*
X669965000Y-85062000D01*
X669965000Y-87472000D02*
X669965000Y-87142000D01*
%TO.C,R9*%
X663425000Y-31315800D02*
X669965000Y-31315800D01*
X663425000Y-31645800D02*
X663425000Y-31315800D01*
X663425000Y-33725800D02*
X663425000Y-34055800D01*
X663425000Y-34055800D02*
X669965000Y-34055800D01*
X669965000Y-31315800D02*
X669965000Y-31645800D01*
X669965000Y-34055800D02*
X669965000Y-33725800D01*
%TO.C,R22*%
X702430000Y-38159215D02*
X702760000Y-38159215D01*
X702430000Y-44699215D02*
X702430000Y-38159215D01*
X702760000Y-44699215D02*
X702430000Y-44699215D01*
X704840000Y-44699215D02*
X705170000Y-44699215D01*
X705170000Y-38159215D02*
X704840000Y-38159215D01*
X705170000Y-44699215D02*
X705170000Y-38159215D01*
%TO.C,BZ1*%
X590899999Y-53395000D02*
G75*
G02*
X587900000Y-53395000I-1499999J6400000D01*
G01*
X595630000Y-46995000D02*
G75*
G02*
X583170000Y-46995000I-6230000J0D01*
G01*
X583170000Y-46995000D02*
G75*
G02*
X595630000Y-46995000I6230000J0D01*
G01*
%TO.C,U3*%
X691540000Y-119840000D02*
X691540000Y-121490000D01*
X691540000Y-123490000D02*
X691540000Y-125140000D01*
X691540000Y-125140000D02*
X711980000Y-125140000D01*
X711980000Y-119840000D02*
X691540000Y-119840000D01*
X711980000Y-125140000D02*
X711980000Y-119840000D01*
X691540000Y-121490000D02*
G75*
G02*
X691540000Y-123490000I0J-1000000D01*
G01*
%TO.C,R4*%
X663425000Y-120342800D02*
X669965000Y-120342800D01*
X663425000Y-120672800D02*
X663425000Y-120342800D01*
X663425000Y-122752800D02*
X663425000Y-123082800D01*
X663425000Y-123082800D02*
X669965000Y-123082800D01*
X669965000Y-120342800D02*
X669965000Y-120672800D01*
X669965000Y-123082800D02*
X669965000Y-122752800D01*
%TO.C,R3*%
X663425000Y-138148200D02*
X669965000Y-138148200D01*
X663425000Y-138478200D02*
X663425000Y-138148200D01*
X663425000Y-140558200D02*
X663425000Y-140888200D01*
X663425000Y-140888200D02*
X669965000Y-140888200D01*
X669965000Y-138148200D02*
X669965000Y-138478200D01*
X669965000Y-140888200D02*
X669965000Y-140558200D01*
%TO.C,D5*%
X651290000Y-105452400D02*
X651290000Y-102362400D01*
X645740000Y-103907400D02*
G75*
G02*
X651290000Y-102362570I2990000J0D01*
G01*
X651290000Y-105452230D02*
G75*
G02*
X645740000Y-103907400I-2560000J1544830D01*
G01*
X651230000Y-103907400D02*
G75*
G02*
X646230000Y-103907400I-2500000J0D01*
G01*
X646230000Y-103907400D02*
G75*
G02*
X651230000Y-103907400I2500000J0D01*
G01*
%TO.C,J2*%
X609710000Y-11890400D02*
X609710000Y-24710400D01*
X609710000Y-11890400D02*
X618340000Y-11890400D01*
X609710000Y-12010400D02*
X618340000Y-12010400D01*
X609710000Y-12128495D02*
X618340000Y-12128495D01*
X609710000Y-12246590D02*
X618340000Y-12246590D01*
X609710000Y-12364685D02*
X618340000Y-12364685D01*
X609710000Y-12482780D02*
X618340000Y-12482780D01*
X609710000Y-12600875D02*
X618340000Y-12600875D01*
X609710000Y-12718970D02*
X618340000Y-12718970D01*
X609710000Y-12837065D02*
X618340000Y-12837065D01*
X609710000Y-12955160D02*
X618340000Y-12955160D01*
X609710000Y-13073255D02*
X618340000Y-13073255D01*
X609710000Y-13191350D02*
X618340000Y-13191350D01*
X609710000Y-13309445D02*
X618340000Y-13309445D01*
X609710000Y-13427540D02*
X618340000Y-13427540D01*
X609710000Y-13545635D02*
X618340000Y-13545635D01*
X609710000Y-13663730D02*
X618340000Y-13663730D01*
X609710000Y-13781825D02*
X618340000Y-13781825D01*
X609710000Y-13899920D02*
X618340000Y-13899920D01*
X609710000Y-14018015D02*
X618340000Y-14018015D01*
X609710000Y-14136110D02*
X618340000Y-14136110D01*
X609710000Y-14254205D02*
X618340000Y-14254205D01*
X609710000Y-14372300D02*
X618340000Y-14372300D01*
X609710000Y-14490400D02*
X618340000Y-14490400D01*
X609710000Y-17030400D02*
X618340000Y-17030400D01*
X609710000Y-19570400D02*
X618340000Y-19570400D01*
X609710000Y-22110400D02*
X618340000Y-22110400D01*
X609710000Y-24710400D02*
X618340000Y-24710400D01*
X618340000Y-11890400D02*
X618340000Y-24710400D01*
X618340000Y-12860400D02*
X618690000Y-12860400D01*
X618340000Y-13580400D02*
X618690000Y-13580400D01*
X618340000Y-15400400D02*
X618750000Y-15400400D01*
X618340000Y-16120400D02*
X618750000Y-16120400D01*
X618340000Y-17940400D02*
X618750000Y-17940400D01*
X618340000Y-18660400D02*
X618750000Y-18660400D01*
X618340000Y-20480400D02*
X618750000Y-20480400D01*
X618340000Y-21200400D02*
X618750000Y-21200400D01*
X618340000Y-23020400D02*
X618750000Y-23020400D01*
X618340000Y-23740400D02*
X618750000Y-23740400D01*
X619800000Y-11890400D02*
X620910000Y-11890400D01*
X620910000Y-11890400D02*
X620910000Y-13220400D01*
%TO.C,A1*%
X592560000Y-74095000D02*
X592560000Y-117535000D01*
X592560000Y-74095000D02*
X597640000Y-74095000D01*
X592560000Y-117535000D02*
X610600000Y-117535000D01*
X595230000Y-76765000D02*
X592560000Y-76765000D01*
X595230000Y-114865000D02*
X592560000Y-114865000D01*
X595230000Y-114865000D02*
X595230000Y-76765000D01*
X597640000Y-71555000D02*
X605520000Y-71555000D01*
X597640000Y-81975000D02*
X597640000Y-71555000D01*
X605520000Y-71555000D02*
X605520000Y-81975000D01*
X605520000Y-81975000D02*
X597640000Y-81975000D01*
X607930000Y-76765000D02*
X610600000Y-76765000D01*
X607930000Y-112325000D02*
X607930000Y-76765000D01*
X607930000Y-112325000D02*
X607930000Y-114865000D01*
X607930000Y-112325000D02*
X610600000Y-112325000D01*
X607930000Y-114865000D02*
X610600000Y-114865000D01*
X610600000Y-74095000D02*
X605520000Y-74095000D01*
X610600000Y-112325000D02*
X610600000Y-74095000D01*
X610600000Y-117535000D02*
X610600000Y-114865000D01*
%TO.C,R16*%
X711430000Y-145320000D02*
X711430000Y-151860000D01*
X711430000Y-151860000D02*
X711760000Y-151860000D01*
X711760000Y-145320000D02*
X711430000Y-145320000D01*
X713840000Y-145320000D02*
X714170000Y-145320000D01*
X714170000Y-145320000D02*
X714170000Y-151860000D01*
X714170000Y-151860000D02*
X713840000Y-151860000D01*
%TD*%
M02*
