%TF.GenerationSoftware,KiCad,Pcbnew,9.0.3*%
%TF.CreationDate,2025-09-10T22:30:54-03:00*%
%TF.ProjectId,PUCK_1 - Copy,5055434b-5f31-4202-9d20-436f70792e6b,rev?*%
%TF.SameCoordinates,Original*%
%TF.FileFunction,Soldermask,Bot*%
%TF.FilePolarity,Negative*%
%FSLAX46Y46*%
G04 Gerber Fmt 4.6, Leading zero omitted, Abs format (unit mm)*
G04 Created by KiCad (PCBNEW 9.0.3) date 2025-09-10 22:30:54*
%MOMM*%
%LPD*%
G01*
G04 APERTURE LIST*
G04 Aperture macros list*
%AMRoundRect*
0 Rectangle with rounded corners*
0 $1 Rounding radius*
0 $2 $3 $4 $5 $6 $7 $8 $9 X,Y pos of 4 corners*
0 Add a 4 corners polygon primitive as box body*
4,1,4,$2,$3,$4,$5,$6,$7,$8,$9,$2,$3,0*
0 Add four circle primitives for the rounded corners*
1,1,$1+$1,$2,$3*
1,1,$1+$1,$4,$5*
1,1,$1+$1,$6,$7*
1,1,$1+$1,$8,$9*
0 Add four rect primitives between the rounded corners*
20,1,$1+$1,$2,$3,$4,$5,0*
20,1,$1+$1,$4,$5,$6,$7,0*
20,1,$1+$1,$6,$7,$8,$9,0*
20,1,$1+$1,$8,$9,$2,$3,0*%
G04 Aperture macros list end*
%ADD10C,1.600000*%
%ADD11R,1.800000X1.800000*%
%ADD12C,1.800000*%
%ADD13R,1.600000X1.600000*%
%ADD14RoundRect,0.250000X-0.550000X0.550000X-0.550000X-0.550000X0.550000X-0.550000X0.550000X0.550000X0*%
%ADD15RoundRect,0.250000X-0.550000X-0.550000X0.550000X-0.550000X0.550000X0.550000X-0.550000X0.550000X0*%
%ADD16R,1.700000X1.700000*%
%ADD17C,1.700000*%
%ADD18R,2.000000X2.000000*%
%ADD19C,2.000000*%
%ADD20RoundRect,0.250000X0.550000X-0.550000X0.550000X0.550000X-0.550000X0.550000X-0.550000X-0.550000X0*%
%ADD21O,1.600000X1.600000*%
G04 APERTURE END LIST*
D10*
%TO.C,R1*%
X662885000Y-175095000D03*
X670505000Y-175095000D03*
%TD*%
D11*
%TO.C,D3*%
X650000000Y-139518200D03*
D12*
X647460000Y-139518200D03*
%TD*%
D11*
%TO.C,D6*%
X650000000Y-86102000D03*
D12*
X647460000Y-86102000D03*
%TD*%
D13*
%TO.C,U1*%
X698520000Y-186392500D03*
D10*
X701060000Y-186392500D03*
X703600000Y-186392500D03*
X706140000Y-186392500D03*
X708680000Y-186392500D03*
X708680000Y-171152500D03*
X706140000Y-171152500D03*
X703600000Y-171152500D03*
X701060000Y-171152500D03*
X698520000Y-171152500D03*
%TD*%
%TO.C,R24*%
X693000000Y-45239215D03*
X693000000Y-37619215D03*
%TD*%
D11*
%TO.C,D1*%
X650000000Y-175095000D03*
D12*
X647460000Y-175095000D03*
%TD*%
D10*
%TO.C,R12*%
X691200000Y-144780000D03*
X691200000Y-152400000D03*
%TD*%
D14*
%TO.C,U4*%
X710650000Y-60690000D03*
D10*
X708110000Y-60690000D03*
X705570000Y-60690000D03*
X703030000Y-60690000D03*
X700490000Y-60690000D03*
X697950000Y-60690000D03*
X695410000Y-60690000D03*
X692870000Y-60690000D03*
X692870000Y-68310000D03*
X695410000Y-68310000D03*
X697950000Y-68310000D03*
X700490000Y-68310000D03*
X703030000Y-68310000D03*
X705570000Y-68310000D03*
X708110000Y-68310000D03*
X710650000Y-68310000D03*
%TD*%
D11*
%TO.C,D7*%
X650000000Y-68296600D03*
D12*
X647460000Y-68296600D03*
%TD*%
D13*
%TO.C,U2*%
X708680000Y-3695000D03*
D10*
X706140000Y-3695000D03*
X703600000Y-3695000D03*
X701060000Y-3695000D03*
X698520000Y-3695000D03*
X698520000Y-18935000D03*
X701060000Y-18935000D03*
X703600000Y-18935000D03*
X706140000Y-18935000D03*
X708680000Y-18935000D03*
%TD*%
%TO.C,R18*%
X687400000Y-45239215D03*
X687400000Y-37619215D03*
%TD*%
%TO.C,R5*%
X662885000Y-103907400D03*
X670505000Y-103907400D03*
%TD*%
%TO.C,R15*%
X707400000Y-144780000D03*
X707400000Y-152400000D03*
%TD*%
%TO.C,R14*%
X702000000Y-144780000D03*
X702000000Y-152400000D03*
%TD*%
D11*
%TO.C,D10*%
X650000000Y-14880400D03*
D12*
X647460000Y-14880400D03*
%TD*%
D11*
%TO.C,D9*%
X650000000Y-32685800D03*
D12*
X647460000Y-32685800D03*
%TD*%
D11*
%TO.C,D8*%
X650000000Y-50491200D03*
D12*
X647460000Y-50491200D03*
%TD*%
D11*
%TO.C,SW1*%
X586600000Y-138495000D03*
D12*
X591600000Y-138495000D03*
X586600000Y-144495000D03*
X591600000Y-144495000D03*
%TD*%
D10*
%TO.C,R21*%
X708800000Y-45239215D03*
X708800000Y-37619215D03*
%TD*%
%TO.C,R11*%
X685800000Y-144780000D03*
X685800000Y-152400000D03*
%TD*%
D15*
%TO.C,C2*%
X712000000Y-100087500D03*
D10*
X714500000Y-100087500D03*
%TD*%
%TO.C,R10*%
X662885000Y-14880400D03*
X670505000Y-14880400D03*
%TD*%
D16*
%TO.C,J1*%
X619800000Y-166155000D03*
D17*
X619800000Y-168695000D03*
X619800000Y-171235000D03*
X619800000Y-173775000D03*
X619800000Y-176315000D03*
%TD*%
D15*
%TO.C,C1*%
X712000000Y-86295000D03*
D10*
X714500000Y-86295000D03*
%TD*%
%TO.C,R13*%
X696800000Y-144780000D03*
X696800000Y-152400000D03*
%TD*%
%TO.C,R23*%
X698600000Y-45239215D03*
X698600000Y-37619215D03*
%TD*%
D11*
%TO.C,D2*%
X650000000Y-157323600D03*
D12*
X647460000Y-157323600D03*
%TD*%
D10*
%TO.C,R19*%
X718800000Y-45239215D03*
X718800000Y-37619215D03*
%TD*%
%TO.C,R2*%
X662885000Y-157323600D03*
X670505000Y-157323600D03*
%TD*%
D11*
%TO.C,D4*%
X650000000Y-121712800D03*
D12*
X647460000Y-121712800D03*
%TD*%
D10*
%TO.C,R7*%
X662885000Y-68296600D03*
X670505000Y-68296600D03*
%TD*%
%TO.C,R17*%
X718400000Y-144780000D03*
X718400000Y-152400000D03*
%TD*%
%TO.C,R20*%
X713800000Y-45239215D03*
X713800000Y-37619215D03*
%TD*%
%TO.C,R8*%
X662885000Y-50491200D03*
X670505000Y-50491200D03*
%TD*%
%TO.C,R6*%
X662885000Y-86102000D03*
X670505000Y-86102000D03*
%TD*%
%TO.C,R9*%
X662885000Y-32685800D03*
X670505000Y-32685800D03*
%TD*%
%TO.C,R22*%
X703800000Y-45239215D03*
X703800000Y-37619215D03*
%TD*%
D18*
%TO.C,BZ1*%
X589400000Y-49495000D03*
D19*
X589400000Y-44495000D03*
%TD*%
D20*
%TO.C,U3*%
X692870000Y-126300000D03*
D10*
X695410000Y-126300000D03*
X697950000Y-126300000D03*
X700490000Y-126300000D03*
X703030000Y-126300000D03*
X705570000Y-126300000D03*
X708110000Y-126300000D03*
X710650000Y-126300000D03*
X710650000Y-118680000D03*
X708110000Y-118680000D03*
X705570000Y-118680000D03*
X703030000Y-118680000D03*
X700490000Y-118680000D03*
X697950000Y-118680000D03*
X695410000Y-118680000D03*
X692870000Y-118680000D03*
%TD*%
%TO.C,R4*%
X662885000Y-121712800D03*
X670505000Y-121712800D03*
%TD*%
%TO.C,R3*%
X662885000Y-139518200D03*
X670505000Y-139518200D03*
%TD*%
D11*
%TO.C,D5*%
X650000000Y-103907400D03*
D12*
X647460000Y-103907400D03*
%TD*%
D16*
%TO.C,J2*%
X619800000Y-13220400D03*
D17*
X619800000Y-15760400D03*
X619800000Y-18300400D03*
X619800000Y-20840400D03*
X619800000Y-23380400D03*
%TD*%
D13*
%TO.C,A1*%
X609200000Y-113595000D03*
D21*
X609200000Y-111055000D03*
X609200000Y-108515000D03*
X609200000Y-105975000D03*
X609200000Y-103435000D03*
X609200000Y-100895000D03*
X609200000Y-98355000D03*
X609200000Y-95815000D03*
X609200000Y-93275000D03*
X609200000Y-90735000D03*
X609200000Y-88195000D03*
X609200000Y-85655000D03*
X609200000Y-83115000D03*
X609200000Y-80575000D03*
X609200000Y-78035000D03*
X593960000Y-78035000D03*
X593960000Y-80575000D03*
X593960000Y-83115000D03*
X593960000Y-85655000D03*
X593960000Y-88195000D03*
X593960000Y-90735000D03*
X593960000Y-93275000D03*
X593960000Y-95815000D03*
X593960000Y-98355000D03*
X593960000Y-100895000D03*
X593960000Y-103435000D03*
X593960000Y-105975000D03*
X593960000Y-108515000D03*
X593960000Y-111055000D03*
X593960000Y-113595000D03*
%TD*%
D10*
%TO.C,R16*%
X712800000Y-144780000D03*
X712800000Y-152400000D03*
%TD*%
M02*
