M48
; DRILL file {KiCad 9.0.3} date 2025-09-10T22:30:57-0300
; FORMAT={-:-/ absolute / metric / decimal}
; #@! TF.CreationDate,2025-09-10T22:30:57-03:00
; #@! TF.GenerationSoftware,Kicad,Pcbnew,9.0.3
; #@! TF.FileFunction,Plated,1,2,PTH
FMAT,2
METRIC
; #@! TA.AperFunction,Plated,PTH,ViaDrill
T1C0.300
; #@! TA.AperFunction,Plated,PTH,ComponentDrill
T2C0.800
; #@! TA.AperFunction,Plated,PTH,ComponentDrill
T3C0.900
; #@! TA.AperFunction,Plated,PTH,ComponentDrill
T4C1.000
%
G90
G05
T1
X579.2Y-100.895
X591.0Y-100.895
X600.2Y-85.695
X601.6Y-88.095
X601.6Y-90.695
X693.8Y-75.095
X698.0Y-71.095
X698.0Y-113.095
X700.6Y-76.295
X703.2Y-109.895
X705.6Y-71.095
X705.8Y-105.295
X719.8Y-77.695
T2
X662.885Y-14.88
X662.885Y-32.686
X662.885Y-50.491
X662.885Y-68.297
X662.885Y-86.102
X662.885Y-103.907
X662.885Y-121.713
X662.885Y-139.518
X662.885Y-157.324
X662.885Y-175.095
X670.505Y-14.88
X670.505Y-32.686
X670.505Y-50.491
X670.505Y-68.297
X670.505Y-86.102
X670.505Y-103.907
X670.505Y-121.713
X670.505Y-139.518
X670.505Y-157.324
X670.505Y-175.095
X685.8Y-144.78
X685.8Y-152.4
X687.4Y-37.619
X687.4Y-45.239
X691.2Y-144.78
X691.2Y-152.4
X692.87Y-60.69
X692.87Y-68.31
X692.87Y-118.68
X692.87Y-126.3
X693.0Y-37.619
X693.0Y-45.239
X695.41Y-60.69
X695.41Y-68.31
X695.41Y-118.68
X695.41Y-126.3
X696.8Y-144.78
X696.8Y-152.4
X697.95Y-60.69
X697.95Y-68.31
X697.95Y-118.68
X697.95Y-126.3
X698.52Y-3.695
X698.52Y-18.935
X698.52Y-171.153
X698.52Y-186.392
X698.6Y-37.619
X698.6Y-45.239
X700.49Y-60.69
X700.49Y-68.31
X700.49Y-118.68
X700.49Y-126.3
X701.06Y-3.695
X701.06Y-18.935
X701.06Y-171.153
X701.06Y-186.392
X702.0Y-144.78
X702.0Y-152.4
X703.03Y-60.69
X703.03Y-68.31
X703.03Y-118.68
X703.03Y-126.3
X703.6Y-3.695
X703.6Y-18.935
X703.6Y-171.153
X703.6Y-186.392
X703.8Y-37.619
X703.8Y-45.239
X705.57Y-60.69
X705.57Y-68.31
X705.57Y-118.68
X705.57Y-126.3
X706.14Y-3.695
X706.14Y-18.935
X706.14Y-171.153
X706.14Y-186.392
X707.4Y-144.78
X707.4Y-152.4
X708.11Y-60.69
X708.11Y-68.31
X708.11Y-118.68
X708.11Y-126.3
X708.68Y-3.695
X708.68Y-18.935
X708.68Y-171.153
X708.68Y-186.392
X708.8Y-37.619
X708.8Y-45.239
X710.65Y-60.69
X710.65Y-68.31
X710.65Y-118.68
X710.65Y-126.3
X712.0Y-86.295
X712.0Y-100.087
X712.8Y-144.78
X712.8Y-152.4
X713.8Y-37.619
X713.8Y-45.239
X714.5Y-86.295
X714.5Y-100.087
X718.4Y-144.78
X718.4Y-152.4
X718.8Y-37.619
X718.8Y-45.239
T3
X586.6Y-138.495
X586.6Y-144.495
X591.6Y-138.495
X591.6Y-144.495
X647.46Y-14.88
X647.46Y-32.686
X647.46Y-50.491
X647.46Y-68.297
X647.46Y-86.102
X647.46Y-103.907
X647.46Y-121.713
X647.46Y-139.518
X647.46Y-157.324
X647.46Y-175.095
X650.0Y-14.88
X650.0Y-32.686
X650.0Y-50.491
X650.0Y-68.297
X650.0Y-86.102
X650.0Y-103.907
X650.0Y-121.713
X650.0Y-139.518
X650.0Y-157.324
X650.0Y-175.095
T4
X589.4Y-44.495
X589.4Y-49.495
X593.96Y-78.035
X593.96Y-80.575
X593.96Y-83.115
X593.96Y-85.655
X593.96Y-88.195
X593.96Y-90.735
X593.96Y-93.275
X593.96Y-95.815
X593.96Y-98.355
X593.96Y-100.895
X593.96Y-103.435
X593.96Y-105.975
X593.96Y-108.515
X593.96Y-111.055
X593.96Y-113.595
X609.2Y-78.035
X609.2Y-80.575
X609.2Y-83.115
X609.2Y-85.655
X609.2Y-88.195
X609.2Y-90.735
X609.2Y-93.275
X609.2Y-95.815
X609.2Y-98.355
X609.2Y-100.895
X609.2Y-103.435
X609.2Y-105.975
X609.2Y-108.515
X609.2Y-111.055
X609.2Y-113.595
X619.8Y-13.22
X619.8Y-15.76
X619.8Y-18.3
X619.8Y-20.84
X619.8Y-23.38
X619.8Y-166.155
X619.8Y-168.695
X619.8Y-171.235
X619.8Y-173.775
X619.8Y-176.315
M30
